<?xml version="1.0" encoding="utf-8"?>
<!-- Generator: Adobe Illustrator 26.0.1, SVG Export Plug-In . SVG Version: 6.00 Build 0)  -->
<svg version="1.1" id="Слой_1" xmlns="http://www.w3.org/2000/svg" xmlns:xlink="http://www.w3.org/1999/xlink" x="0px" y="0px"
	 viewBox="0 0 17 17" style="enable-background:new 0 0 17 17;" xml:space="preserve">
<style type="text/css">
	.st0{fill:#FFFFFF;}
</style>
<g>
	<g>
		<path class="st0" d="M8.5,5.71c-0.28,0-0.51-0.08-0.69-0.23c-0.18-0.15-0.27-0.36-0.27-0.6c0-0.25,0.09-0.45,0.27-0.6
			C7.99,4.12,8.22,4.04,8.5,4.04c0.29,0,0.52,0.08,0.7,0.23c0.18,0.15,0.27,0.36,0.27,0.6c0,0.25-0.09,0.45-0.27,0.6
			C9.02,5.64,8.79,5.71,8.5,5.71z M7.77,6.52H8.5h0.73v6.44H7.77V6.52z"/>
	</g>
	<path class="st0" d="M8.5,16.5c-4.41,0-8-3.59-8-8s3.59-8,8-8s8,3.59,8,8S12.91,16.5,8.5,16.5z M8.5,2.09
		c-3.53,0-6.41,2.87-6.41,6.41c0,3.53,2.87,6.41,6.41,6.41s6.41-2.87,6.41-6.41C14.91,4.97,12.03,2.09,8.5,2.09z"/>
</g>
</svg>
