<?xml version="1.0" encoding="UTF-8" standalone="no"?>
<!-- Generator: Adobe Illustrator 26.0.1, SVG Export Plug-In . SVG Version: 6.00 Build 0)  -->

<svg
   version="1.1"
   id="Слой_1"
   x="0px"
   y="0px"
   viewBox="0 0 48 48"
   xml:space="preserve"
   width="48"
   height="48"
   xmlns="http://www.w3.org/2000/svg"
   xmlns:svg="http://www.w3.org/2000/svg"><defs
   id="defs1" />
<style
   type="text/css"
   id="style1">
	.st0{fill:#00A4FF;}
</style>
<g
   id="g1"
   transform="matrix(0.16385143,0,0,0.16385143,-2.9171382,7.2325096)">
	<path
   class="st0"
   d="M 286.94,89.23 H 180.3 C 173.13,56.78 144.32,32.44 109.95,32.44 70.2,32.44 37.87,64.99 37.87,105 c 0,40.01 32.34,72.56 72.08,72.56 34.37,0 63.17,-24.34 70.35,-56.79 h 39.35 v 33.81 c 0,3.49 2.83,6.32 6.32,6.32 h 45.01 c 3.49,0 6.32,-2.83 6.32,-6.32 v -33.81 h 9.63 c 3.97,0 7.2,-3.2 7.2,-7.16 V 96.39 c 0,-3.95 -3.22,-7.16 -7.19,-7.16 z m -176.99,54.26 c -20.19,0 -36.61,-17.27 -36.61,-38.49 0,-21.23 16.42,-38.49 36.61,-38.49 20.19,0 36.61,17.27 36.61,38.49 0,21.23 -16.42,38.49 -36.61,38.49 z"
   id="path1" />
</g>
</svg>
