<?xml version="1.0" encoding="utf-8"?>
<!-- Generator: Adobe Illustrator 26.0.1, SVG Export Plug-In . SVG Version: 6.00 Build 0)  -->
<svg version="1.1" id="Слой_1" xmlns="http://www.w3.org/2000/svg" xmlns:xlink="http://www.w3.org/1999/xlink" x="0px" y="0px"
	 viewBox="0 0 1920 1080" style="enable-background:new 0 0 1920 1080;" xml:space="preserve">
<style type="text/css">
	.st0{fill:#2A2ABC;}
</style>
<g>
	<g>
		<g>
			<path class="st0" d="M424.16,432.78h-0.1c-12.2-55.2-58.9-96.1-113.6-96.1c-54.7,0-101.4,40.9-113.6,96.1h-0.1
				c-18.4,0-33.4,15-33.4,33.4v200c0,18.4,15,33.4,33.4,33.4h227.5c18.4,0,33.4-15,33.4-33.4v-200
				C457.56,447.78,442.56,432.78,424.16,432.78z M310.46,365.18c39.1,0,73,28.4,84.2,67.6h-168.5
				C237.46,393.48,271.26,365.18,310.46,365.18z M429.06,666.18c0,2.7-2.2,4.9-4.9,4.9h-227.5c-2.7,0-4.9-2.2-4.9-4.9v-200
				c0-2.7,2.2-4.9,4.9-4.9h227.5c2.7,0,4.9,2.2,4.9,4.9V666.18z"/>
		</g>
		<g>
			<polygon class="st0" points="390.06,536.28 375.96,512.28 322.96,544.58 324.26,483.08 296.56,483.08 297.96,544.58 
				244.86,512.28 230.76,536.28 285.16,565.88 230.76,596.08 244.86,619.58 297.96,587.68 296.56,649.28 324.26,649.28 
				322.96,587.68 375.96,619.58 390.06,596.08 335.26,565.88 			"/>
		</g>
	</g>
	<g>
		<g>
			<g>
				<path class="st0" d="M513.46,539.98v-151.1h26.6v151.1L513.46,539.98L513.46,539.98z M527.76,452.08h66.9v23.4h-66.9V452.08z
					 M569.26,462.58l63.9-73.7h30.8l-63,72.3l65.3,78.8h-32.4L569.26,462.58z"/>
			</g>
			<g>
				<path class="st0" d="M732.96,542.78c-13.3,0-25.1-2.5-35.5-7.5c-10.3-5-18.5-12-24.4-21c-5.9-9-8.9-19.5-8.9-31.4
					c0-11.8,2.8-22.2,8.4-31.1s13.3-15.9,23.2-21c9.9-5,21.2-7.5,33.9-7.5s23.8,2.9,33.1,8.6s16.5,13.7,21.7,24.1
					c5.1,10.3,7.7,22.5,7.7,36.5h-107.3v-19.9h94.3l-13.1,7.5c-0.4-7.5-2.2-14-5.3-19.3c-3.2-5.4-7.4-9.5-12.7-12.4
					s-11.6-4.3-18.8-4.3c-7.7,0-14.3,1.5-20,4.6s-10.2,7.4-13.4,13s-4.8,12.2-4.8,19.8c0,8.5,1.9,15.8,5.7,22s9.3,10.9,16.3,14.2
					s15.4,4.9,25.1,4.9c8.7,0,17.7-1.4,26.8-4.1c9.1-2.7,17.2-6.6,24.2-11.6v18.9c-7,5.4-15.5,9.6-25.5,12.7
					C753.46,541.18,743.36,542.78,732.96,542.78z"/>
			</g>
			<g>
				<path class="st0" d="M847.86,536.28l-52.4-110.4h28.8l49.5,110.4H847.86z M834.76,575.98c-6.7,0-12.8-0.8-18.2-2.5
					s-10.5-4-15.2-7v-19.9c5.1,3.2,10,5.6,14.6,7s9.8,2.2,15.6,2.2c5.5,0,10.4-1.2,14.7-3.7s7.9-6.8,10.7-13l51.4-113.2h27.8
					l-59,122.1c-3.2,6.7-7,12.1-11.4,16.2c-4.4,4.1-9.1,7.1-14.3,9C846.16,575.08,840.66,575.98,834.76,575.98z"/>
			</g>
			<g>
				<path class="st0" d="M954.36,539.98v-151.1h26.6v151.1L954.36,539.98L954.36,539.98z M968.66,452.08h66.9v23.4h-66.9V452.08
					L968.66,452.08z M1010.16,462.58l63.9-73.7h30.8l-63.1,72.3l65.3,78.8h-32.4L1010.16,462.58z"/>
			</g>
			<g>
				<path class="st0" d="M1173.96,542.78c-13.3,0-25.1-2.5-35.4-7.5s-18.5-12-24.4-21c-5.9-9-8.9-19.5-8.9-31.4
					c0-11.8,2.8-22.2,8.4-31.1c5.6-8.9,13.3-15.9,23.2-21c9.9-5,21.2-7.5,33.9-7.5c12.8,0,23.8,2.9,33.1,8.6s16.6,13.7,21.7,24.1
					c5.1,10.3,7.7,22.5,7.7,36.5h-107.4v-19.9h94.3l-13.1,7.5c-0.4-7.5-2.2-14-5.3-19.3c-3.2-5.4-7.4-9.5-12.7-12.4
					s-11.6-4.3-18.8-4.3c-7.7,0-14.3,1.5-20,4.6s-10.2,7.4-13.4,13s-4.8,12.2-4.8,19.8c0,8.5,1.9,15.8,5.7,22s9.3,10.9,16.3,14.2
					c7.1,3.3,15.4,4.9,25.1,4.9c8.7,0,17.7-1.4,26.8-4.1c9.1-2.7,17.2-6.6,24.2-11.6v18.9c-7,5.4-15.5,9.6-25.5,12.7
					C1194.46,541.18,1184.26,542.78,1173.96,542.78z"/>
			</g>
			<g>
				<path class="st0" d="M1316.96,542.78c-13.3,0-25.1-2.5-35.4-7.5s-18.5-12-24.4-21c-5.9-9-8.9-19.5-8.9-31.4
					c0-11.8,2.8-22.2,8.4-31.1c5.6-8.9,13.3-15.9,23.2-21c9.9-5,21.2-7.5,33.9-7.5c12.8,0,23.8,2.9,33.1,8.6s16.6,13.7,21.7,24.1
					c5.1,10.3,7.7,22.5,7.7,36.5h-107.4v-19.9h94.3l-13.1,7.5c-0.4-7.5-2.2-14-5.3-19.3c-3.2-5.4-7.4-9.5-12.7-12.4
					s-11.6-4.3-18.8-4.3c-7.7,0-14.3,1.5-20,4.6s-10.2,7.4-13.4,13s-4.8,12.2-4.8,19.8c0,8.5,1.9,15.8,5.7,22s9.3,10.9,16.3,14.2
					c7.1,3.3,15.4,4.9,25.1,4.9c8.7,0,17.7-1.4,26.8-4.1c9.1-2.7,17.2-6.6,24.2-11.6v18.9c-7,5.4-15.5,9.6-25.5,12.7
					C1337.46,541.18,1327.36,542.78,1316.96,542.78z"/>
			</g>
			<g>
				<path class="st0" d="M1397.76,425.88h26.2v39.7l-1.2,4v23l1.2,7v73.5h-26.2V425.88z M1413.86,482.98
					c2.6-12.1,6.8-22.6,12.7-31.5s13.2-15.9,21.9-20.8c8.7-5,18.3-7.5,28.9-7.5c11.2,0,21,2.5,29.6,7.5s15.3,12,20.1,21
					c4.8,8.9,7.2,19.4,7.2,31.3c0,11.8-2.4,22.2-7.2,31.2c-4.8,9-11.6,16-20.1,21c-8.6,5-18.5,7.5-29.6,7.5
					c-10.6,0-20.2-2.5-28.8-7.5s-15.9-12-21.9-21C1420.66,505.38,1416.46,494.88,1413.86,482.98z M1507.76,482.98
					c0-7.7-1.6-14.4-4.7-20.2c-3.2-5.8-7.5-10.4-13-13.7s-11.8-4.9-18.9-4.9c-7.1,0-13.8,1.6-20,4.9s-11.7,7.9-16.4,13.7
					c-4.7,5.8-8.5,12.6-11.5,20.2c2.9,7.7,6.8,14.4,11.5,20.2s10.2,10.4,16.4,13.7c6.2,3.3,12.9,4.9,20,4.9s13.4-1.6,18.9-4.9
					c5.5-3.3,9.8-7.9,13-13.7C1506.16,497.38,1507.76,490.58,1507.76,482.98z"/>
			</g>
			<g>
				<path class="st0" d="M1618.36,542.78c-13.3,0-25.1-2.5-35.4-7.5s-18.5-12-24.4-21c-5.9-9-8.9-19.5-8.9-31.4
					c0-11.8,2.8-22.2,8.4-31.1c5.6-8.9,13.3-15.9,23.2-21c9.9-5,21.2-7.5,33.9-7.5c12.8,0,23.8,2.9,33.1,8.6
					c9.3,5.7,16.6,13.7,21.7,24.1c5.1,10.3,7.7,22.5,7.7,36.5h-107.4v-19.9h94.3l-13.1,7.5c-0.4-7.5-2.2-14-5.3-19.3
					c-3.2-5.4-7.4-9.5-12.7-12.4s-11.6-4.3-18.8-4.3c-7.7,0-14.3,1.5-20,4.6s-10.2,7.4-13.4,13s-4.8,12.2-4.8,19.8
					c0,8.5,1.9,15.8,5.7,22s9.3,10.9,16.3,14.2c7.1,3.3,15.4,4.9,25.1,4.9c8.7,0,17.7-1.4,26.8-4.1c9.1-2.7,17.2-6.6,24.2-11.6v18.9
					c-7,5.4-15.5,9.6-25.5,12.7C1638.86,541.18,1628.66,542.78,1618.36,542.78z"/>
			</g>
			<g>
				<path class="st0" d="M1700.56,425.88h26.2v41.5v72.6h-26.2v-77.6V425.88z M1784.56,425.08v23c-3-0.8-6.2-1.4-9.7-1.8
					s-6.8-0.6-9.9-0.6c-7.4,0-14,1.6-19.7,4.8c-5.8,3.2-10.3,8-13.6,14.4c-3.3,6.4-4.9,14.2-4.9,23.5l-6-7.5
					c0.5-8.1,1.9-15.6,4.1-22.7c2.2-7,5.3-13.2,9.3-18.4s8.8-9.3,14.6-12.3c5.8-3,12.5-4.4,20.1-4.4c2.7,0,5.4,0.2,8.3,0.5
					C1779.86,423.98,1782.36,424.48,1784.56,425.08z"/>
			</g>
		</g>
		<g>
			<g>
				<path class="st0" d="M513.16,613.98h14.4v21.9l-0.7,2.2v12.7l0.7,3.9v40.5h-14.4V613.98z M522.06,645.38
					c1.4-6.7,3.7-12.5,7-17.4s7.3-8.8,12-11.5c4.8-2.7,10.1-4.1,15.9-4.1c6.1,0,11.6,1.4,16.3,4.2s8.4,6.6,11.1,11.5s4,10.7,4,17.3
					c0,6.5-1.3,12.3-4,17.2s-6.4,8.8-11.1,11.6s-10.2,4.2-16.3,4.2c-5.8,0-11.1-1.4-15.9-4.1c-4.7-2.7-8.8-6.6-12-11.5
					C525.86,657.78,523.46,651.98,522.06,645.38z M573.86,645.38c0-4.2-0.9-7.9-2.6-11.2c-1.7-3.2-4.1-5.7-7.2-7.5
					c-3-1.8-6.5-2.7-10.4-2.7s-7.6,0.9-11,2.7s-6.5,4.3-9,7.5c-2.6,3.2-4.7,6.9-6.3,11.2c1.6,4.2,3.7,7.9,6.3,11.2
					c2.6,3.2,5.6,5.7,9,7.5s7.1,2.7,11,2.7s7.4-0.9,10.4-2.7s5.4-4.3,7.2-7.5C572.96,653.38,573.86,649.58,573.86,645.38z"/>
			</g>
			<g>
				<path class="st0" d="M624.36,635.98c9.3-0.3,16.5,0.3,21.8,1.9c5.3,1.6,8.2,2.8,8.7,3.7s0.8,6.1,0.8,15.5c0,1.9-0.7,4-2.2,6.4
					s-3.6,4.8-6.3,7c-2.7,2.3-6,4.1-9.9,5.6c-3.8,1.5-8.1,2.2-12.9,2.2c-5.2,0-9.8-0.9-13.9-2.6c-4.1-1.7-7.3-4.1-9.7-7.3
					s-3.6-7-3.6-11.3c0-4.4,1.2-8.1,3.6-11.3c2.4-3.1,5.7-5.6,9.8-7.2C614.66,636.98,619.26,636.08,624.36,635.98z M650.26,641.08
					c0-5.3-1.9-9.5-5.6-12.5s-9.4-4.6-17-4.6c-4.1,0-8.3,0.5-12.7,1.6c-4.4,1-8.5,2.7-12.5,5.1v-11.2c4.4-2.4,8.9-4.2,13.5-5.3
					s9.6-1.7,14.8-1.7c6.8,0,12.7,1.1,17.8,3.2c5.1,2.1,9,5.3,11.9,9.5c2.8,4.2,4.3,9.5,4.3,15.8v35.9h-14.3L650.26,641.08z
					 M633.16,646.78c-8.2,0-13.8,0.9-16.8,2.8c-3,1.9-4.6,4.3-4.6,7.4c0,3,1.5,5.5,4.5,7.4s7.2,2.8,12.5,2.8
					c6.3,0,11.5-1.8,15.5-5.4c4-3.6,6.1-7.7,6.1-12.4C647.06,647.58,641.36,646.78,633.16,646.78z"/>
			</g>
			<g>
				<path class="st0" d="M744.16,657.68c0,4.2-1.2,7.9-3.6,11s-6,5.5-10.8,7.2s-10.8,2.5-18.1,2.5c-7.5,0-14-0.9-19.4-2.8
					c-5.5-1.9-9.7-4.6-12.7-8s-4.6-7.4-4.8-11.9h14.6c0.4,2.4,1.6,4.5,3.6,6.3s4.6,3.2,7.8,4.2s6.9,1.4,11,1.4
					c6,0,10.5-0.7,13.5-2.2c3-1.4,4.6-3.6,4.6-6.6c0-2-1-3.5-3.1-4.6c-2-1-5.9-1.8-11.5-2.3l-12.3-1.1c-6.7-0.6-11.9-1.8-15.8-3.6
					c-3.8-1.8-6.6-4-8.2-6.7c-1.6-2.6-2.4-5.4-2.4-8.4c0-4.3,1.3-7.9,4-10.8s6.4-5.1,11.1-6.6c4.7-1.5,10.3-2.3,16.5-2.3
					c6.5,0,12.3,0.9,17.4,2.7c5.1,1.8,9.2,4.3,12.2,7.5s4.7,6.9,5.1,11.2h-14.5c-0.3-1.7-1.2-3.3-2.6-4.9c-1.4-1.6-3.6-2.9-6.6-4
					c-2.9-1.1-6.8-1.6-11.7-1.6c-5.2,0-9.2,0.7-12.2,2c-2.9,1.3-4.4,3.3-4.4,5.9c0,1.6,0.9,3,2.7,4.2c1.8,1.1,5.1,1.9,9.9,2.4
					l15.9,1.4c6.4,0.6,11.3,1.7,14.9,3.4c3.6,1.7,6.1,3.8,7.6,6.4C743.36,651.58,744.16,654.48,744.16,657.68z"/>
			</g>
			<g>
				<path class="st0" d="M820.86,657.68c0,4.2-1.2,7.9-3.6,11c-2.4,3.1-6,5.5-10.8,7.2s-10.8,2.5-18.1,2.5c-7.5,0-14-0.9-19.4-2.8
					c-5.5-1.9-9.7-4.6-12.7-8s-4.6-7.4-4.8-11.9h14.7c0.4,2.4,1.6,4.5,3.6,6.3s4.6,3.2,7.8,4.2s6.9,1.4,11,1.4
					c6,0,10.5-0.7,13.5-2.2c3-1.4,4.6-3.6,4.6-6.6c0-2-1-3.5-3.1-4.6c-2-1-5.9-1.8-11.5-2.3l-12.3-1.1c-6.7-0.6-11.9-1.8-15.8-3.6
					c-3.8-1.8-6.6-4-8.2-6.7c-1.6-2.6-2.4-5.4-2.4-8.4c0-4.3,1.3-7.9,4-10.8s6.4-5.1,11.1-6.6c4.7-1.5,10.3-2.3,16.5-2.3
					c6.5,0,12.3,0.9,17.4,2.7c5.1,1.8,9.2,4.3,12.2,7.5s4.7,6.9,5.1,11.2h-14.7c-0.3-1.7-1.2-3.3-2.6-4.9c-1.4-1.6-3.6-2.9-6.6-4
					c-2.9-1.1-6.8-1.6-11.7-1.6c-5.2,0-9.2,0.7-12.2,2c-2.9,1.3-4.4,3.3-4.4,5.9c0,1.6,0.9,3,2.7,4.2c1.8,1.1,5.1,1.9,9.9,2.4
					l15.9,1.4c6.4,0.6,11.3,1.7,14.9,3.4s6.1,3.8,7.6,6.4C820.06,651.58,820.86,654.48,820.86,657.68z"/>
			</g>
			<g>
				<polygon class="st0" points="911.76,669.38 906.66,669.38 928.36,613.98 942.76,613.98 917.46,676.78 902.66,676.78 
					880.46,620.48 886.16,620.48 863.36,676.78 848.56,676.78 823.36,613.98 838.06,613.98 859.86,669.38 854.36,669.38 
					876.16,613.98 890.56,613.98 				"/>
			</g>
			<g>
				<path class="st0" d="M983.96,678.38c-7.6,0-14.3-1.4-20-4.2s-10.2-6.6-13.4-11.6s-4.8-10.7-4.8-17.2c0-6.6,1.6-12.3,4.8-17.3
					c3.2-4.9,7.7-8.8,13.4-11.5c5.7-2.8,12.4-4.2,20-4.2s14.3,1.4,20,4.2s10.2,6.6,13.4,11.5s4.8,10.7,4.8,17.3
					c0,6.5-1.6,12.3-4.8,17.2s-7.7,8.8-13.4,11.6S991.56,678.38,983.96,678.38z M983.96,667.08c4.9,0,9.1-0.9,12.6-2.7
					s6.2-4.3,8.2-7.5c1.9-3.2,2.9-7,2.9-11.5c0-4.4-1-8.3-2.9-11.5s-4.6-5.7-8.2-7.5c-3.5-1.8-7.7-2.7-12.6-2.7
					c-4.8,0-9,0.9-12.5,2.7s-6.3,4.3-8.2,7.5s-2.9,7.1-2.9,11.5s1,8.3,2.9,11.5s4.7,5.7,8.2,7.5S979.16,667.08,983.96,667.08z"/>
			</g>
			<g>
				<path class="st0" d="M1034.76,613.98h14.4v22.9v40h-14.4v-42.7V613.98z M1081.06,613.58v12.7c-1.6-0.4-3.4-0.8-5.3-1
					c-1.9-0.2-3.7-0.3-5.4-0.3c-4.1,0-7.7,0.9-10.9,2.7s-5.7,4.4-7.5,7.9s-2.7,7.8-2.7,12.9l-3.3-4.1c0.3-4.4,1.1-8.6,2.3-12.5
					s2.9-7.3,5.1-10.2s4.9-5.1,8-6.8c3.2-1.6,6.9-2.4,11.1-2.4c1.5,0,3,0.1,4.6,0.3C1078.56,612.88,1079.86,613.18,1081.06,613.58z"
					/>
			</g>
			<g>
				<path class="st0" d="M1143.96,662.68c-3.3,5-7.3,8.8-12,11.5c-4.8,2.7-10.1,4.1-15.9,4.1c-6.1,0-11.6-1.4-16.3-4.2
					s-8.4-6.6-11.1-11.6s-4-10.7-4-17.2c0-6.6,1.3-12.3,4-17.3c2.7-4.9,6.4-8.8,11.1-11.5c4.7-2.8,10.2-4.2,16.3-4.2
					c5.8,0,11.2,1.4,15.9,4.1c4.8,2.7,8.8,6.6,12,11.5c3.3,4.9,5.6,10.7,7,17.4C1149.56,651.98,1147.16,657.78,1143.96,662.68z
					 M1101.76,656.58c1.7,3.2,4.1,5.7,7.2,7.5c3,1.8,6.5,2.7,10.4,2.7s7.6-0.9,11-2.7s6.5-4.3,9-7.5c2.6-3.2,4.7-6.9,6.3-11.2
					c-1.6-4.2-3.7-7.9-6.3-11.2c-2.6-3.2-5.6-5.7-9-7.5s-7.1-2.7-11-2.7s-7.4,0.9-10.4,2.7s-5.4,4.3-7.2,7.5
					c-1.7,3.2-2.6,6.9-2.6,11.2C1099.16,649.58,1100.06,653.38,1101.76,656.58z M1159.56,676.78h-14.4v-20.8l2.2-4.7v-11.7l-2.2-4.1
					v-44.3h14.4V676.78z"/>
			</g>
			<g>
				<path class="st0" d="M1205.56,613.98h14.4v22.6v40.2h-14.4v-42.3V613.98z M1243.16,612.38c5.6,0,10.3,1.2,14.2,3.6
					c3.9,2.4,6.8,5.8,8.9,10.2c2,4.4,3.1,9.7,3.1,15.9v34.8h-14.4v-32.4c0-6.6-1.4-11.6-4.2-14.9c-2.8-3.4-6.8-5.1-12.2-5.1
					c-3.8,0-7.1,0.9-9.8,2.7c-2.8,1.8-4.9,4.3-6.4,7.6s-2.3,7.1-2.3,11.4l-5.1-2.8c0.7-6.5,2.3-12.1,4.8-16.7
					c2.6-4.6,5.8-8.1,9.9-10.6C1233.66,613.68,1238.16,612.38,1243.16,612.38z M1292.36,612.38c5.6,0,10.3,1.2,14.2,3.6
					c3.9,2.4,6.9,5.8,8.9,10.2s3.1,9.7,3.1,15.9v34.8h-14.4v-32.4c0-6.6-1.4-11.6-4.2-14.9c-2.8-3.4-6.8-5.1-12.2-5.1
					c-3.8,0-7.1,0.9-9.8,2.7c-2.8,1.8-4.9,4.3-6.4,7.6s-2.3,7.1-2.3,11.4l-5.1-2.8c0.7-6.5,2.3-12.1,4.8-16.7
					c2.6-4.6,5.8-8.1,9.9-10.6C1282.96,613.68,1287.46,612.38,1292.36,612.38z"/>
			</g>
			<g>
				<path class="st0" d="M1356.86,635.98c9.3-0.3,16.5,0.3,21.8,1.9c5.3,1.6,8.2,2.8,8.7,3.7s0.8,6.1,0.8,15.5c0,1.9-0.7,4-2.2,6.4
					s-3.6,4.8-6.3,7c-2.7,2.3-6,4.1-9.9,5.6s-8.1,2.2-12.9,2.2c-5.2,0-9.8-0.9-13.9-2.6c-4.1-1.7-7.3-4.1-9.7-7.3s-3.6-7-3.6-11.3
					c0-4.4,1.2-8.1,3.6-11.3c2.4-3.1,5.7-5.6,9.8-7.2C1347.16,636.98,1351.76,636.08,1356.86,635.98z M1382.86,641.08
					c0-5.3-1.9-9.5-5.6-12.5s-9.4-4.6-17-4.6c-4.1,0-8.3,0.5-12.7,1.6c-4.4,1-8.5,2.7-12.5,5.1v-11.2c4.4-2.4,8.9-4.2,13.5-5.3
					s9.6-1.7,14.8-1.7c6.8,0,12.7,1.1,17.8,3.2c5.1,2.1,9,5.3,11.9,9.5c2.8,4.2,4.3,9.5,4.3,15.8v35.9h-14.3L1382.86,641.08z
					 M1365.66,646.78c-8.2,0-13.8,0.9-16.8,2.8c-3,1.9-4.6,4.3-4.6,7.4c0,3,1.5,5.5,4.5,7.4s7.2,2.8,12.5,2.8
					c6.3,0,11.5-1.8,15.5-5.4c4-3.6,6.1-7.7,6.1-12.4C1379.56,647.58,1373.86,646.78,1365.66,646.78z"/>
			</g>
			<g>
				<path class="st0" d="M1412.36,613.98h14.4v22.6v40.2h-14.4v-42.3V613.98z M1451.76,612.38c5.9,0,11,1.2,15.1,3.6
					c4.1,2.4,7.3,5.8,9.5,10.2s3.3,9.7,3.3,15.9v34.8h-14.4v-32.4c0-6.6-1.5-11.6-4.6-14.9c-3.1-3.4-7.6-5.1-13.5-5.1
					c-4.1,0-7.6,0.9-10.7,2.7c-3.1,1.8-5.4,4.3-7.1,7.6s-2.5,7.1-2.5,11.4l-5.1-2.8c0.7-6.5,2.4-12.1,5.1-16.7
					c2.7-4.6,6.3-8.1,10.5-10.6C1441.66,613.68,1446.46,612.38,1451.76,612.38z"/>
			</g>
			<g>
				<path class="st0" d="M1517.96,635.98c9.3-0.3,16.5,0.3,21.8,1.9c5.3,1.6,8.2,2.8,8.7,3.7s0.8,6.1,0.8,15.5c0,1.9-0.7,4-2.2,6.4
					s-3.6,4.8-6.3,7c-2.7,2.3-6,4.1-9.9,5.6s-8.1,2.2-12.9,2.2c-5.2,0-9.8-0.9-13.9-2.6c-4.1-1.7-7.3-4.1-9.7-7.3s-3.6-7-3.6-11.3
					c0-4.4,1.2-8.1,3.6-11.3c2.4-3.1,5.7-5.6,9.8-7.2C1508.26,636.98,1512.86,636.08,1517.96,635.98z M1543.96,641.08
					c0-5.3-1.9-9.5-5.6-12.5s-9.4-4.6-17-4.6c-4.1,0-8.3,0.5-12.7,1.6c-4.4,1-8.5,2.7-12.5,5.1v-11.2c4.4-2.4,8.9-4.2,13.5-5.3
					s9.6-1.7,14.8-1.7c6.8,0,12.7,1.1,17.8,3.2c5.1,2.1,9,5.3,11.9,9.5c2.8,4.2,4.3,9.5,4.3,15.8v35.9h-14.3L1543.96,641.08z
					 M1526.76,646.78c-8.2,0-13.8,0.9-16.8,2.8c-3,1.9-4.6,4.3-4.6,7.4c0,3,1.5,5.5,4.5,7.4s7.2,2.8,12.5,2.8
					c6.3,0,11.5-1.8,15.5-5.4c4-3.6,6.1-7.7,6.1-12.4C1540.66,647.58,1534.96,646.78,1526.76,646.78z"/>
			</g>
			<g>
				<path class="st0" d="M1599.56,671.98c-5.8,0-11-1.2-15.5-3.7c-4.6-2.5-8.2-5.9-10.9-10.4c-2.7-4.4-4-9.7-4-15.7s1.3-11.2,4-15.7
					c2.7-4.4,6.3-7.9,10.9-10.4c4.6-2.5,9.8-3.7,15.5-3.7c4.3,0,8.3,0.7,11.9,2c3.7,1.3,7,3.1,9.9,5.3s5.4,4.6,7.4,7.2
					c2,2.6,3.6,5.3,4.7,8c1.1,2.7,1.7,5.2,1.7,7.4c0,2.9-0.9,6.1-2.6,9.5s-4.1,6.7-7.3,9.7c-3.1,3-6.9,5.5-11.3,7.5
					C1609.76,670.98,1604.86,671.98,1599.56,671.98z M1629.76,661.38v-11.1l0.6-2v-12.1l-0.6-2.2v-20h14.4v46.1
					c0,8.1-1.7,14.8-5.1,20.3c-3.4,5.4-8.1,9.5-14,12.3c-5.9,2.7-12.7,4.1-20.4,4.1c-5.6,0-10.8-0.7-15.5-2.2s-9.3-3.7-13.8-6.8v-12
					c4.5,3.6,9.2,6.1,14,7.5s9.6,2.2,14.4,2.2c8.4,0,14.9-2.1,19.3-6.2C1627.56,674.98,1629.76,669.08,1629.76,661.38z
					 M1604.06,661.28c5.3,0,10.1-1.5,14.5-4.6c4.4-3,8.3-7.9,11.8-14.5c-3.5-6.8-7.4-11.7-11.8-14.7c-4.4-3-9.2-4.5-14.5-4.5
					c-4.3,0-8,0.8-11,2.4c-3,1.6-5.3,3.9-6.9,6.8c-1.6,2.9-2.4,6.2-2.4,10c0,3.7,0.8,7,2.4,9.9c1.6,2.9,3.9,5.1,6.9,6.8
					C1596.06,660.48,1599.76,661.28,1604.06,661.28z"/>
			</g>
			<g>
				<path class="st0" d="M1693.46,678.38c-7.3,0-13.8-1.4-19.5-4.2s-10.2-6.6-13.4-11.6c-3.3-5-4.9-10.7-4.9-17.3
					c0-6.5,1.5-12.2,4.6-17.2c3.1-4.9,7.3-8.8,12.8-11.5c5.4-2.8,11.7-4.2,18.7-4.2s13.1,1.6,18.3,4.7c5.1,3.1,9.1,7.6,11.9,13.3
					s4.2,12.4,4.2,20.1h-59.2v-11h52l-7.2,4.1c-0.2-4.1-1.2-7.7-2.9-10.7s-4.1-5.2-7-6.8s-6.4-2.4-10.4-2.4c-4.2,0-7.9,0.9-11,2.6
					c-3.1,1.7-5.6,4.1-7.4,7.2c-1.8,3.1-2.7,6.7-2.7,10.9c0,4.7,1.1,8.7,3.2,12.1c2.1,3.4,5.1,6,9,7.8s8.5,2.7,13.8,2.7
					c4.8,0,9.7-0.8,14.8-2.3c5-1.5,9.5-3.6,13.3-6.4v10.4c-3.8,3-8.5,5.3-14,7C1704.86,677.48,1699.16,678.38,1693.46,678.38z"/>
			</g>
			<g>
				<path class="st0" d="M1738.76,613.98h14.4v22.9v40h-14.4v-42.7V613.98z M1785.06,613.58v12.7c-1.6-0.4-3.4-0.8-5.3-1
					s-3.7-0.3-5.4-0.3c-4.1,0-7.7,0.9-10.9,2.7c-3.2,1.8-5.7,4.4-7.5,7.9s-2.7,7.8-2.7,12.9l-3.3-4.1c0.3-4.4,1.1-8.6,2.3-12.5
					c1.2-3.9,2.9-7.3,5.1-10.2s4.9-5.1,8-6.8c3.2-1.6,6.9-2.4,11.1-2.4c1.5,0,3,0.1,4.6,0.3
					C1782.56,612.88,1783.96,613.18,1785.06,613.58z"/>
			</g>
		</g>
	</g>
</g>
</svg>
