<?xml version="1.0" encoding="UTF-8"?>
<svg version="1.1" xmlns="http://www.w3.org/2000/svg" width="1749" height="413">
<path d="M0 0 C577.17 0 1154.34 0 1749 0 C1749 136.29 1749 272.58 1749 413 C1171.83 413 594.66 413 0 413 C0 276.71 0 140.42 0 0 Z " fill="#2A2ABB" transform="translate(0,0)"/>
<path d="M0 0 C0.74894531 0.60714844 1.49789062 1.21429688 2.26953125 1.83984375 C20.2459851 16.99780961 33.11353303 38.70886597 40 61 C40.37253906 62.20398438 40.74507813 63.40796875 41.12890625 64.6484375 C42 68 42 68 42 72 C43.2375 71.87625 44.475 71.7525 45.75 71.625 C54.07125324 71.59866692 61.94847863 76.58653031 68 82 C69.94921875 84.48046875 69.94921875 84.48046875 71.6875 87.1875 C72.26886719 88.06792969 72.85023438 88.94835937 73.44921875 89.85546875 C76.78049902 96.61033177 77.29605309 103.65627202 77.26069641 111.08784485 C77.26452196 111.95686454 77.26834751 112.82588422 77.27228898 113.72123784 C77.2825388 116.60889933 77.27864216 119.49635899 77.2746582 122.3840332 C77.27900915 124.46438784 77.28419357 126.54474088 77.29014587 128.62509155 C77.30350671 134.2595003 77.30411772 139.89384184 77.30158257 145.52826333 C77.30051077 150.23977164 77.30540165 154.95126647 77.310188 159.66277188 C77.32127335 170.78292268 77.32172621 181.90303971 77.31567383 193.02319336 C77.30963572 204.47652504 77.3219432 215.92973382 77.3432439 227.38304454 C77.3608859 237.23302151 77.36685711 247.08295945 77.36360615 256.93295163 C77.36179712 262.80853346 77.36439144 268.68402765 77.37832069 274.55959511 C77.39093649 280.08774156 77.38891943 285.61569712 77.37590981 291.14384079 C77.37355255 293.16579313 77.37624798 295.18775907 77.38453293 297.20969582 C77.4873174 324.25714893 77.4873174 324.25714893 69 335 C68.51917969 335.61617188 68.03835938 336.23234375 67.54296875 336.8671875 C61.53268578 343.68176624 53.86768164 346.86783568 44.92421913 347.45968819 C38.53022573 347.70914996 32.13704008 347.66509791 25.73950195 347.63110352 C23.2794544 347.6362471 20.81941053 347.64353167 18.359375 347.65278625 C12.39410865 347.66933622 6.42928852 347.66270685 0.4640607 347.64469803 C-4.38590434 347.63062582 -9.23578043 347.6267891 -14.08576393 347.6301403 C-14.77815522 347.63061775 -15.4705465 347.63109519 -16.18391934 347.6315871 C-17.59081638 347.6326135 -18.99771339 347.63366887 -20.40461037 347.63475286 C-32.81969193 347.64330283 -45.23461518 347.62669838 -57.6496582 347.59692383 C-69.68032474 347.56807178 -81.71076342 347.56101393 -93.74145508 347.57641602 C-106.8656637 347.59319522 -119.98976436 347.59719635 -133.11397582 347.57970566 C-134.51454499 347.57786139 -135.91511417 347.57602666 -137.31568336 347.57420158 C-138.00466878 347.57328949 -138.6936542 347.5723774 -139.40351796 347.57143768 C-144.24604257 347.56584439 -149.08851426 347.56912797 -153.931036 347.57574654 C-160.45239201 347.58430651 -166.97346909 347.57126264 -173.49478912 347.54389763 C-175.88565664 347.53702008 -178.27655479 347.53690903 -180.66742134 347.54411316 C-183.93515409 347.55282393 -187.20187949 347.5368231 -190.4695282 347.5146637 C-191.41175521 347.52290446 -192.35398222 347.53114523 -193.32476157 347.53963572 C-202.44910948 347.42571494 -211.02438846 343.98808174 -217.55859375 337.4375 C-224.96714696 329.16061262 -227.14536619 321.94371053 -227.16062927 311.01353455 C-227.16571709 310.10709704 -227.17080491 309.20065952 -227.17604691 308.26675421 C-227.1917464 305.22853749 -227.20028989 302.19034452 -227.20874023 299.15209961 C-227.21828074 296.97381439 -227.22817199 294.79553069 -227.23838806 292.61724854 C-227.26975115 285.46229852 -227.29003778 278.30733696 -227.30859375 271.15234375 C-227.31189107 269.93422855 -227.31518839 268.71611334 -227.31858563 267.46108556 C-227.34936589 255.96884124 -227.3760677 244.47659426 -227.39300442 232.98432064 C-227.4149059 218.29666992 -227.45687168 203.60944622 -227.52644199 188.9219417 C-227.57372477 178.58798296 -227.59794374 168.25412277 -227.6052013 157.92005926 C-227.61015102 151.75140441 -227.62516832 145.58316203 -227.6649456 139.41462517 C-227.70190027 133.60734887 -227.71019225 127.80071914 -227.69693947 121.99334717 C-227.69699327 119.86816886 -227.70722903 117.74296124 -227.7286911 115.61789131 C-227.86409034 101.44776091 -226.99669679 91.64448156 -217.3125 80.5625 C-211.53790169 75.28381185 -204.73289401 71.72486035 -196.8125 71.6875 C-195.554375 71.790625 -194.29625 71.89375 -193 72 C-192.92523438 71.46375 -192.85046875 70.9275 -192.7734375 70.375 C-187.81221233 40.80220683 -168.16011317 11.9908882 -144.1315918 -5.47875977 C-98.89812201 -36.95341772 -42.77428446 -34.7181412 0 0 Z " fill="#2B2BBB" transform="translate(247,43)"/>
<path d="M0 0 C0.74894531 0.60714844 1.49789062 1.21429688 2.26953125 1.83984375 C20.2459851 16.99780961 33.11353303 38.70886597 40 61 C40.37253906 62.20398438 40.74507813 63.40796875 41.12890625 64.6484375 C42 68 42 68 42 72 C43.2375 71.87625 44.475 71.7525 45.75 71.625 C54.07125324 71.59866692 61.94847863 76.58653031 68 82 C69.94921875 84.48046875 69.94921875 84.48046875 71.6875 87.1875 C72.26886719 88.06792969 72.85023438 88.94835937 73.44921875 89.85546875 C76.78049902 96.61033177 77.29605309 103.65627202 77.26069641 111.08784485 C77.26452196 111.95686454 77.26834751 112.82588422 77.27228898 113.72123784 C77.2825388 116.60889933 77.27864216 119.49635899 77.2746582 122.3840332 C77.27900915 124.46438784 77.28419357 126.54474088 77.29014587 128.62509155 C77.30350671 134.2595003 77.30411772 139.89384184 77.30158257 145.52826333 C77.30051077 150.23977164 77.30540165 154.95126647 77.310188 159.66277188 C77.32127335 170.78292268 77.32172621 181.90303971 77.31567383 193.02319336 C77.30963572 204.47652504 77.3219432 215.92973382 77.3432439 227.38304454 C77.3608859 237.23302151 77.36685711 247.08295945 77.36360615 256.93295163 C77.36179712 262.80853346 77.36439144 268.68402765 77.37832069 274.55959511 C77.39093649 280.08774156 77.38891943 285.61569712 77.37590981 291.14384079 C77.37355255 293.16579313 77.37624798 295.18775907 77.38453293 297.20969582 C77.4873174 324.25714893 77.4873174 324.25714893 69 335 C68.51917969 335.61617188 68.03835938 336.23234375 67.54296875 336.8671875 C61.53268578 343.68176624 53.86768164 346.86783568 44.92421913 347.45968819 C38.53022573 347.70914996 32.13704008 347.66509791 25.73950195 347.63110352 C23.2794544 347.6362471 20.81941053 347.64353167 18.359375 347.65278625 C12.39410865 347.66933622 6.42928852 347.66270685 0.4640607 347.64469803 C-4.38590434 347.63062582 -9.23578043 347.6267891 -14.08576393 347.6301403 C-14.77815522 347.63061775 -15.4705465 347.63109519 -16.18391934 347.6315871 C-17.59081638 347.6326135 -18.99771339 347.63366887 -20.40461037 347.63475286 C-32.81969193 347.64330283 -45.23461518 347.62669838 -57.6496582 347.59692383 C-69.68032474 347.56807178 -81.71076342 347.56101393 -93.74145508 347.57641602 C-106.8656637 347.59319522 -119.98976436 347.59719635 -133.11397582 347.57970566 C-134.51454499 347.57786139 -135.91511417 347.57602666 -137.31568336 347.57420158 C-138.00466878 347.57328949 -138.6936542 347.5723774 -139.40351796 347.57143768 C-144.24604257 347.56584439 -149.08851426 347.56912797 -153.931036 347.57574654 C-160.45239201 347.58430651 -166.97346909 347.57126264 -173.49478912 347.54389763 C-175.88565664 347.53702008 -178.27655479 347.53690903 -180.66742134 347.54411316 C-183.93515409 347.55282393 -187.20187949 347.5368231 -190.4695282 347.5146637 C-191.41175521 347.52290446 -192.35398222 347.53114523 -193.32476157 347.53963572 C-202.44910948 347.42571494 -211.02438846 343.98808174 -217.55859375 337.4375 C-224.96714696 329.16061262 -227.14536619 321.94371053 -227.16062927 311.01353455 C-227.16571709 310.10709704 -227.17080491 309.20065952 -227.17604691 308.26675421 C-227.1917464 305.22853749 -227.20028989 302.19034452 -227.20874023 299.15209961 C-227.21828074 296.97381439 -227.22817199 294.79553069 -227.23838806 292.61724854 C-227.26975115 285.46229852 -227.29003778 278.30733696 -227.30859375 271.15234375 C-227.31189107 269.93422855 -227.31518839 268.71611334 -227.31858563 267.46108556 C-227.34936589 255.96884124 -227.3760677 244.47659426 -227.39300442 232.98432064 C-227.4149059 218.29666992 -227.45687168 203.60944622 -227.52644199 188.9219417 C-227.57372477 178.58798296 -227.59794374 168.25412277 -227.6052013 157.92005926 C-227.61015102 151.75140441 -227.62516832 145.58316203 -227.6649456 139.41462517 C-227.70190027 133.60734887 -227.71019225 127.80071914 -227.69693947 121.99334717 C-227.69699327 119.86816886 -227.70722903 117.74296124 -227.7286911 115.61789131 C-227.86409034 101.44776091 -226.99669679 91.64448156 -217.3125 80.5625 C-211.53790169 75.28381185 -204.73289401 71.72486035 -196.8125 71.6875 C-195.554375 71.790625 -194.29625 71.89375 -193 72 C-192.92523438 71.46375 -192.85046875 70.9275 -192.7734375 70.375 C-187.81221233 40.80220683 -168.16011317 11.9908882 -144.1315918 -5.47875977 C-98.89812201 -36.95341772 -42.77428446 -34.7181412 0 0 Z M-198 104 C-198.29273465 106.84384556 -198.40023802 109.46833952 -198.3742218 112.31298828 C-198.37819621 113.17098085 -198.38217061 114.02897343 -198.38626546 114.91296577 C-198.3959192 117.79891465 -198.3840518 120.68437708 -198.37231445 123.5703125 C-198.3747414 125.63482853 -198.37845978 127.69934338 -198.38337708 129.76385498 C-198.39280295 135.3794646 -198.38334636 140.99490044 -198.37004495 146.61049652 C-198.35875139 152.47877538 -198.36283633 158.34704543 -198.36479187 164.21533203 C-198.36567551 174.07131804 -198.35457983 183.92723536 -198.33618164 193.78320312 C-198.31501297 205.18885394 -198.31150373 216.59440409 -198.3177436 228.00007057 C-198.32343232 238.95804808 -198.3177974 249.91599002 -198.30657005 260.8739624 C-198.30191754 265.54376888 -198.30105303 270.21355365 -198.3031559 274.88336182 C-198.30503537 280.37936799 -198.2969612 285.87527126 -198.2810955 291.37125397 C-198.27684201 293.39213892 -198.27600922 295.41303429 -198.27878571 297.43392181 C-198.28199285 300.18506585 -198.27296284 302.9358996 -198.26069641 305.68701172 C-198.26447573 306.49332598 -198.26825506 307.29964024 -198.27214891 308.13038826 C-198.24183795 311.95362193 -198.17263693 313.7410446 -196 317 C-194.15264283 317.45046784 -194.15264283 317.45046784 -191.99570465 317.37473011 C-191.15345762 317.38193665 -190.31121058 317.3891432 -189.44344091 317.39656812 C-188.04764799 317.38550669 -188.04764799 317.38550669 -186.62365723 317.3742218 C-185.14700647 317.38018341 -185.14700647 317.38018341 -183.64052439 317.38626546 C-180.32075236 317.39593901 -177.00140113 317.38403976 -173.68164062 317.37231445 C-171.31023499 317.37474075 -168.93883037 317.37845848 -166.56742859 317.38337708 C-160.78239265 317.39183073 -154.99749345 317.38625141 -149.2124666 317.37411413 C-142.48072711 317.36051503 -135.7490175 317.36213014 -129.01726776 317.36424746 C-117.00904483 317.36743968 -105.00088115 317.35575637 -92.99267578 317.33618164 C-81.33087357 317.31717648 -69.66914081 317.3100938 -58.00732422 317.31567383 C-45.31946461 317.32172682 -32.63163558 317.32156338 -19.94377851 317.310188 C-18.59176604 317.30898066 -17.23975357 317.30777467 -15.88774109 317.30657005 C-14.88982233 317.30566475 -14.88982233 317.30566475 -13.87174359 317.30474115 C-9.17534122 317.30085604 -4.4789502 317.30125791 0.217453 317.3031559 C6.53421321 317.30503361 12.85088376 317.29697487 19.16762352 317.2810955 C21.492089 317.27683733 23.81656354 317.27601231 26.14103127 317.27878571 C29.30200642 317.28198612 32.46271002 317.27297997 35.62365723 317.26069641 C36.55418584 317.26447573 37.48471446 317.26825506 38.44344091 317.27214891 C39.70681146 317.26340062 39.70681146 317.26340062 40.99570465 317.25447559 C41.72596186 317.25360882 42.45621907 317.25274204 43.20860529 317.251849 C45.25361974 317.14756554 45.25361974 317.14756554 47 315 C47.19996824 312.22376522 47.27360668 309.54693578 47.26069641 306.76930237 C47.26452196 305.90808067 47.26834751 305.04685897 47.27228898 304.15953964 C47.28265617 301.25677072 47.27861981 298.35419823 47.2746582 295.45141602 C47.27900262 293.37719539 47.28418486 291.30297637 47.29014587 289.22875977 C47.30357618 283.58214465 47.30411007 277.9355963 47.30158257 272.28896832 C47.30051559 267.58193352 47.30538922 262.87491237 47.310188 258.16788048 C47.32129713 247.06690674 47.32171269 235.96596684 47.31567383 224.86499023 C47.30963164 213.39742471 47.32194809 201.92998181 47.3432439 190.46243721 C47.36083354 180.63057627 47.36686543 170.79875446 47.36360615 160.96687835 C47.36178894 155.08868481 47.36447301 149.21057873 47.37832069 143.33239937 C47.39085158 137.8060149 47.38900003 132.27982221 47.37590981 126.75344086 C47.3735341 124.72126388 47.376314 122.6890736 47.38453293 120.65691185 C47.39491836 117.89027581 47.38696621 115.12429308 47.3742218 112.35768127 C47.38159609 111.54679395 47.38897037 110.73590662 47.39656812 109.90044695 C47.44464607 105.84154986 47.44464607 105.84154986 45.73241156 102.29491884 C43.6117029 100.7097611 42.53465757 100.6242463 39.90668488 100.62247658 C39.07003028 100.61465334 38.23337569 100.60683009 37.37136793 100.59876978 C36.45221617 100.60546195 35.53306441 100.61215411 34.58605957 100.61904907 C33.60964398 100.6143691 32.63322839 100.60968913 31.62722445 100.60486734 C28.34053935 100.5928579 25.05426665 100.60239788 21.76757812 100.61181641 C19.41735083 100.60775335 17.06712544 100.60241298 14.71690369 100.59588623 C8.32240836 100.5821752 1.92805775 100.58752694 -4.4664402 100.59702349 C-10.4709465 100.60503464 -16.47545018 100.59864422 -22.47995728 100.5942419 C-35.097245 100.5856825 -47.71446737 100.59553074 -60.33174437 100.611643 C-71.1634157 100.6250467 -81.99499057 100.62271876 -92.82666016 100.60888672 C-105.39807935 100.59284059 -117.96944124 100.58650653 -130.54086924 100.59572351 C-137.1981609 100.60047162 -143.85539469 100.60100086 -150.51268005 100.59111404 C-156.7703916 100.58247038 -163.02792038 100.58841871 -169.28561211 100.60579681 C-171.58708327 100.60977558 -173.88856972 100.60860403 -176.19003487 100.60200882 C-179.32225325 100.59385814 -182.45387932 100.60403649 -185.58605957 100.61904907 C-186.50521133 100.61235691 -187.42436309 100.60566474 -188.37136793 100.59876978 C-189.20802252 100.60659303 -190.04467711 100.61441627 -190.90668488 100.62247658 C-191.62994477 100.62296363 -192.35320466 100.62345069 -193.09838152 100.62395251 C-195.60531967 101.11970274 -196.48623966 101.96515783 -198 104 Z " fill="#FDFDFE" transform="translate(247,43)"/>
<path d="M0 0 C1.00772461 0.01015137 2.01544922 0.02030273 3.05371094 0.03076172 C21.39597755 0.41326291 33.93318713 7.30279909 46.53125 20.42578125 C57.66288519 33.38827749 60.10999688 50.48071763 59.4375 67 C57.87531849 83.74019507 52.15662539 98.84704396 39.5625 110.375 C24.47125325 122.06540242 8.08065519 124.67744595 -10.4375 123.375 C-15.06723939 122.55990504 -19.13937142 121.26097389 -23.4375 119.375 C-24.36433594 118.97410156 -25.29117187 118.57320313 -26.24609375 118.16015625 C-37.08619382 112.85542643 -47.99287548 103.26424904 -53.4375 92.375 C-53.7675 113.165 -54.0975 133.955 -54.4375 155.375 C-63.6775 155.375 -72.9175 155.375 -82.4375 155.375 C-82.4375 104.885 -82.4375 54.395 -82.4375 2.375 C-73.1975 2.375 -63.9575 2.375 -54.4375 2.375 C-54.1075 11.615 -53.7775 20.855 -53.4375 30.375 C-50.7975 26.745 -48.1575 23.115 -45.4375 19.375 C-32.78236798 6.52812356 -18.06408381 -0.26448591 0 0 Z " fill="#FBFBFD" transform="translate(1404.4375,82.625)"/>
<path d="M0 0 C9.57 0 19.14 0 29 0 C29.11993444 21.02850563 28.86489564 41.98717649 28 63 C31.62671765 60.83619959 35.25123526 58.66874191 38.875 56.5 C39.98512451 55.83597168 41.09524902 55.17194336 42.23901367 54.48779297 C48.29004929 50.86150351 54.31699906 47.20033607 60.30859375 43.4765625 C60.89872253 43.11040833 61.48885132 42.74425415 62.09686279 42.36700439 C64.95873518 40.59061862 67.81662048 38.80852233 70.66943359 37.01757812 C71.70277832 36.37498047 72.73612305 35.73238281 73.80078125 35.0703125 C74.70997314 34.50070801 75.61916504 33.93110352 76.5559082 33.34423828 C78.75730808 32.13347934 80.54544632 31.45148619 83 31 C83.59167969 31.99 84.18335938 32.98 84.79296875 34 C85.59104671 35.33339267 86.3892306 36.66672193 87.1875 38 C87.59734131 38.68537842 88.00718262 39.37075684 88.42944336 40.0769043 C90.59353939 43.68743984 92.78832663 47.26978484 95.0625 50.8125 C97 54 97 54 97 56 C91.27701067 59.9725512 84.93639025 63.07286238 78.6875 66.125 C70.94352995 69.92327422 63.47984949 74.18707043 55.99487305 78.46923828 C55.04781494 79.0104834 54.10075684 79.55172852 53.125 80.109375 C52.28195313 80.59374023 51.43890625 81.07810547 50.5703125 81.57714844 C47.75288478 83.13679593 44.8888416 84.57768768 42 86 C52.09485467 91.80952213 62.25953405 97.47872845 72.47363281 103.07543945 C80.72173376 107.59750114 88.9006183 112.21518904 97 117 C92.87810798 125.67736792 88.00889601 133.81552939 83 142 C76.14118031 138.71764267 69.66905145 135.06907012 63.25 131 C55.49909264 126.14237942 47.6925319 121.39539962 39.8125 116.75 C38.86213867 116.18925781 37.91177734 115.62851562 36.93261719 115.05078125 C32.5223086 112.4231968 32.5223086 112.4231968 28 110 C28.03029297 110.74121094 28.06058594 111.48242188 28.09179688 112.24609375 C28.88463352 132.17678722 29.11794106 152.05485576 29 172 C19.76 172 10.52 172 1 172 C1 151.54 1 131.08 1 110 C-21.65781353 123.2029159 -21.65781353 123.2029159 -44.02758789 136.88330078 C-44.90793701 137.42841309 -45.78828613 137.97352539 -46.6953125 138.53515625 C-47.45859863 139.013479 -48.22188477 139.49180176 -49.00830078 139.98461914 C-51 141 -51 141 -54 141 C-55.62573242 138.88867187 -55.62573242 138.88867187 -57.35546875 135.96875 C-58.28842773 134.41220703 -58.28842773 134.41220703 -59.24023438 132.82421875 C-60.20413086 131.17873047 -60.20413086 131.17873047 -61.1875 129.5 C-61.84169922 128.40300781 -62.49589844 127.30601562 -63.16992188 126.17578125 C-64.78985005 123.4561938 -66.39927819 120.73092173 -68 118 C-65.6806591 115.43330036 -63.3153054 113.93371812 -60.265625 112.3203125 C-59.30954346 111.80968262 -58.35346191 111.29905273 -57.3684082 110.77294922 C-56.3393335 110.22912598 -55.31025879 109.68530273 -54.25 109.125 C-45.54742958 104.47187813 -36.89775313 99.74145524 -28.3125 94.875 C-27.35182617 94.33117676 -26.39115234 93.78735352 -25.40136719 93.22705078 C-21.23826643 90.86358495 -17.098763 88.47385253 -13 86 C-13.73299316 85.60844727 -14.46598633 85.21689453 -15.22119141 84.81347656 C-23.20121054 80.54900214 -31.17606892 76.27501203 -39.1473999 71.99432373 C-40.89935094 71.05402016 -42.65204561 70.11510249 -44.40478516 69.17626953 C-47.41857457 67.56030038 -50.42860572 65.93756119 -53.4375 64.3125 C-54.33484863 63.83264648 -55.23219727 63.35279297 -56.15673828 62.85839844 C-56.99060059 62.40625977 -57.82446289 61.95412109 -58.68359375 61.48828125 C-59.75951782 60.90880737 -59.75951782 60.90880737 -60.85717773 60.31762695 C-63.38569615 58.76283444 -65.68214971 56.85428023 -68 55 C-63.38 47.08 -58.76 39.16 -54 31 C-50.64644305 31.83838924 -48.88189141 32.50146491 -46.04296875 34.23046875 C-45.27114258 34.69702881 -44.49931641 35.16358887 -43.70410156 35.64428711 C-42.87362305 36.15354736 -42.04314453 36.66280762 -41.1875 37.1875 C-40.31963867 37.7141626 -39.45177734 38.2408252 -38.55761719 38.78344727 C-36.68788176 39.91907077 -34.81960698 41.05710188 -32.95263672 42.19726562 C-29.92086408 44.04831649 -26.88475715 45.89208119 -23.84765625 47.734375 C-19.93335138 50.11075107 -16.01977978 52.4883044 -12.109375 54.87109375 C-11.31499023 55.35505615 -10.52060547 55.83901855 -9.70214844 56.33764648 C-6.12293309 58.5395689 -2.56120873 60.76910599 1 63 C0.96970703 61.83766846 0.93941406 60.67533691 0.90820312 59.4777832 C0.79366605 55.05499847 0.68273721 50.63212863 0.57275391 46.20922852 C0.525195 44.31564989 0.47673059 42.42209374 0.42724609 40.52856445 C0.07491198 27.01403453 -0.04639892 13.51948512 0 0 Z " fill="#FCFCFE" transform="translate(157,166)"/>
<path d="M0 0 C17.04711715 -0.65130182 34.2016092 5.00586076 47.09765625 16.15625 C59.72829098 28.10529904 65.58801254 43.15204292 67.7890625 60.16015625 C67.7890625 64.12015625 67.7890625 68.08015625 67.7890625 72.16015625 C33.7990625 72.16015625 -0.1909375 72.16015625 -35.2109375 72.16015625 C-27.70116949 87.17969226 -22.57285297 94.98127552 -6.89453125 100.28125 C14.41942266 105.36676392 38.21985749 100.8083401 57.2734375 90.4921875 C59.7890625 89.16015625 59.7890625 89.16015625 64.7890625 87.16015625 C64.7890625 93.76015625 64.7890625 100.36015625 64.7890625 107.16015625 C54.52891745 113.24360509 45.32065312 117.97083346 33.7890625 121.16015625 C32.76554688 121.47855469 31.74203125 121.79695313 30.6875 122.125 C9.31297859 127.87967884 -14.58644329 125.45534066 -34.0234375 115.07421875 C-48.80176616 106.19997728 -57.80756592 94.370271 -63.2109375 78.16015625 C-67.04745239 60.47999321 -64.4341778 43.01846631 -54.9140625 27.73828125 C-46.42019553 14.88059272 -32.43515314 5.97154994 -17.5234375 2.34765625 C-11.67396568 1.16383457 -5.94173124 0.43040809 0 0 Z " fill="#FCFCFE" transform="translate(629.2109375,81.83984375)"/>
<path d="M0 0 C1.52931787 1.34231585 3.03102573 2.71690214 4.5 4.125 C5.20511719 4.79015625 5.91023438 5.4553125 6.63671875 6.140625 C20.91689414 20.8288054 23.27419948 39.51219163 24.5 59.125 C-9.49 59.125 -43.48 59.125 -78.5 59.125 C-73.42598771 71.30262949 -69.87971398 78.13203038 -58.5 84.125 C-38.67373799 92.13715736 -16.68775108 90.60983861 3 82.75 C7.92055162 80.52535624 12.64118959 77.95390976 17.3203125 75.26171875 C19.5 74.125 19.5 74.125 21.5 74.125 C23.00474469 90.86110484 23.00474469 90.86110484 19.765625 95.734375 C17.09408746 97.63762724 14.53599409 98.88092723 11.5 100.125 C10.36820313 100.65996094 9.23640625 101.19492188 8.0703125 101.74609375 C-15.06010726 112.29903143 -43.35339062 115.6819785 -67.55078125 106.6484375 C-75.92753335 103.33065159 -82.85866304 99.31043813 -89.5 93.125 C-90.46486328 92.27808594 -90.46486328 92.27808594 -91.44921875 91.4140625 C-100.03327468 83.48172448 -106.91790498 71.16232622 -107.67700195 59.37695312 C-108.11366759 38.20823828 -106.69335769 22.36141509 -91.6875 6.21875 C-80.95995185 -4.04904609 -67.98300518 -9.49666336 -53.5 -11.875 C-52.3553125 -12.07222656 -52.3553125 -12.07222656 -51.1875 -12.2734375 C-33.15215748 -14.96419425 -14.562802 -11.16779294 0 0 Z " fill="#FCFCFE" transform="translate(1587.5,94.875)"/>
<path d="M0 0 C4.52190017 3.99470233 7.87167941 8.58388648 10.98046875 13.734375 C11.53347656 14.64703125 12.08648438 15.5596875 12.65625 16.5 C15.77098583 22.15753505 17.7955404 27.87389288 19.35546875 34.109375 C19.60731934 35.07931396 19.60731934 35.07931396 19.86425781 36.06884766 C21.47446926 43.19655472 20.98046875 49.00084595 20.98046875 56.734375 C-29.50953125 57.229375 -29.50953125 57.229375 -81.01953125 57.734375 C-76.04324825 70.17508249 -70.61176097 77.44043302 -58.4453125 82.88671875 C-36.92831887 91.13538889 -13.01590155 85.6731334 7.375 76.97265625 C10.49716648 75.48880801 13.16882615 73.73212106 15.98046875 71.734375 C16.64046875 71.734375 17.30046875 71.734375 17.98046875 71.734375 C19.60362504 89.53915089 19.60362504 89.53915089 16.140625 94.22265625 C13.47405667 95.78552647 10.91537635 96.77328212 7.98046875 97.734375 C6.31014737 98.58137261 4.64352316 99.43569644 2.98046875 100.296875 C-20.82476619 110.8202192 -49.25697366 112.47533748 -73.6640625 103.2109375 C-78.86967392 100.92022607 -83.44982763 98.10674542 -88.01953125 94.734375 C-88.79941406 94.16203125 -89.57929687 93.5896875 -90.3828125 93 C-101.36862704 84.12027425 -108.78934645 70.64951446 -111.01953125 56.734375 C-112.84703096 38.38671388 -109.39381659 22.32963095 -97.74609375 7.6953125 C-73.82923164 -19.46818247 -27.90321424 -23.17722632 0 0 Z " fill="#FCFCFE" transform="translate(1279.01953125,97.265625)"/>
<path d="M0 0 C1.06138184 -0.00539795 2.12276367 -0.0107959 3.21630859 -0.01635742 C20.06168335 0.13543839 33.80286113 6.02391425 46.37109375 17.265625 C60.71631656 31.91844518 64.1875 51.62528564 64.1875 71.3125 C30.5275 71.3125 -3.1325 71.3125 -37.8125 71.3125 C-32.73453158 83.49962421 -29.19243887 90.31027614 -17.8125 96.3125 C3.89429821 105.18741489 25.95375743 101.77291238 47.04296875 93.09765625 C51.87218057 91.05059786 56.56464807 88.78923337 61.1875 86.3125 C61.98495339 92.91862276 62.7278031 99.77345138 61.1875 106.3125 C57.66870372 110.6859453 53.32103139 112.38502119 48.1875 114.3125 C46.92070272 114.86808995 45.6563661 115.42932365 44.39453125 115.99609375 C30.83658216 121.83337714 16.91275616 123.54196522 2.25 123.625 C1.31534912 123.63063965 0.38069824 123.6362793 -0.58227539 123.64208984 C-17.42695624 123.46611177 -32.16664622 118.06951832 -45.8125 108.3125 C-46.864375 107.57 -47.91625 106.8275 -49 106.0625 C-61.56717344 93.77459708 -67.71424433 78.92777622 -68.125 61.5 C-67.80778032 44.42611711 -61.95919191 29.60747342 -49.94140625 17.4140625 C-35.62009353 4.216555 -18.99211262 0.05967126 0 0 Z " fill="#FCFCFE" transform="translate(1087.8125,82.6875)"/>
<path d="M0 0 C9.24 0 18.48 0 28 0 C28 21.45 28 42.9 28 65 C34.414375 65.04125 40.82875 65.0825 47.4375 65.125 C49.44384521 65.16383301 51.45019043 65.20266602 53.51733398 65.24267578 C62.80460184 65.39300812 62.80460184 65.39300812 71.13964844 61.88720703 C73.41380633 59.37383657 75.22511243 56.88143779 77 54 C77.81210937 53.02289063 78.62421875 52.04578125 79.4609375 51.0390625 C80.40839844 49.84410156 80.40839844 49.84410156 81.375 48.625 C85.05571847 44.07219493 88.92648648 39.76582589 92.91137695 35.4831543 C96.71064617 31.37585417 100.23622049 27.08407957 103.74609375 22.7265625 C106.91305909 18.89546751 110.26488276 15.24776009 113.62890625 11.58984375 C116.3764995 8.58876579 119.05678622 5.53452883 121.72265625 2.4609375 C122.45832299 1.61953273 123.20969387 0.79030613 124 0 C126.3756852 -0.0883967 128.72208674 -0.11530305 131.09765625 -0.09765625 C132.16094398 -0.09553383 132.16094398 -0.09553383 133.24571228 -0.09336853 C135.51801712 -0.08775443 137.79022475 -0.07519963 140.0625 -0.0625 C141.59960796 -0.05748681 143.13671745 -0.05292359 144.67382812 -0.04882812 C148.44925642 -0.03778042 152.22461171 -0.02050641 156 0 C152.45620298 4.86570786 148.81958866 9.43554683 144.6875 13.8125 C141.16513928 17.58334335 137.79264264 21.40863118 134.5625 25.4375 C130.71954521 30.21541338 126.63168671 34.68994984 122.44384766 39.16162109 C118.525395 43.36949782 114.88933486 47.75430568 111.2890625 52.23828125 C108.28107861 55.86736762 105.10281043 59.31900023 101.89892578 62.7746582 C98.50090599 66.44017652 95.21652788 70.17493981 92 74 C93.70042603 78.14415205 96.6415183 81.24379837 99.5625 84.5625 C100.65723639 85.82206003 101.75097798 87.08248534 102.84375 88.34375 C103.38257813 88.96507812 103.92140625 89.58640625 104.4765625 90.2265625 C106.5478397 92.63774159 108.55921009 95.09467909 110.5625 97.5625 C113.82778567 101.58358416 117.1456779 105.55336443 120.5 109.5 C126.14866425 116.1502629 131.66823688 122.90121227 137.171875 129.671875 C140.38355091 133.6124419 143.59994491 137.54455508 146.90625 141.40625 C147.39947754 141.9832666 147.89270508 142.5602832 148.40087891 143.15478516 C149.35817411 144.27189381 150.31861414 145.38631799 151.28271484 146.49755859 C153.8735595 149.52068469 155.99732207 152.56714803 158 156 C126.17752022 158.59878698 126.17752022 158.59878698 119.1640625 153.046875 C116.29293974 150.00169619 114.12096204 146.59321354 112.10595703 142.93603516 C110.50910178 140.1406572 108.47459942 137.80592557 106.375 135.375 C105.67117188 134.50617188 104.96734375 133.63734375 104.2421875 132.7421875 C101.69746317 129.62999852 99.10381775 126.56273503 96.5 123.5 C92.38899703 118.66244076 88.3485278 113.77382314 84.34375 108.84765625 C81.12472801 104.93654453 77.84081057 101.08141592 74.54101562 97.23828125 C71.1077077 93.2154154 71.1077077 93.2154154 70 91 C56.14 90.67 42.28 90.34 28 90 C28 111.78 28 133.56 28 156 C18.76 156 9.52 156 0 156 C0 104.52 0 53.04 0 0 Z " fill="#FCFCFE" transform="translate(864,47)"/>
<path d="M0 0 C9.24 0 18.48 0 28 0 C28 21.45 28 42.9 28 65 C34.1875 65.103125 40.375 65.20625 46.75 65.3125 C48.67682617 65.37864502 50.60365234 65.44479004 52.58886719 65.51293945 C62.37627224 65.65732152 62.37627224 65.65732152 70.78295898 61.21264648 C73.41497161 58.55731509 75.68443446 55.70145645 77.83323669 52.64610291 C79.61216468 50.13634064 81.59570652 47.8009865 83.5625 45.4375 C84.27535156 44.54933594 84.98820312 43.66117188 85.72265625 42.74609375 C88.21826547 39.73680853 90.83766805 36.86062978 93.5 34 C97.78389952 29.39614118 101.79363257 24.63508754 105.73828125 19.734375 C108.90795681 15.90229747 112.2626428 12.25391031 115.640625 8.60546875 C118.09130591 6.00976711 118.09130591 6.00976711 120.17944336 2.8737793 C122.39299876 0.22285116 122.87144699 0.02498174 126.50512695 -0.68115234 C127.81956787 -0.64973145 129.13400879 -0.61831055 130.48828125 -0.5859375 C131.5430793 -0.57320297 131.5430793 -0.57320297 132.6191864 -0.56021118 C134.85189045 -0.52678324 137.08089979 -0.45154502 139.3125 -0.375 C140.8313278 -0.34488573 142.35021259 -0.31751245 143.86914062 -0.29296875 C147.58061534 -0.22703363 151.28994673 -0.1235945 155 0 C152.6571522 4.03965552 150.09117177 7.22557058 146.875 10.625 C143.26902714 14.47867509 139.80665816 18.38159905 136.5 22.5 C132.8643595 27.01858176 129.03163598 31.27983329 125.08374023 35.52172852 C122.11284372 38.7329905 119.30038923 42.02627815 116.5625 45.4375 C112.70707818 50.23259453 108.60150324 54.71982649 104.39770508 59.20556641 C99.99763445 63.93054126 95.93146807 68.87752837 92 74 C95.79487923 82.3260783 102.96244054 89.17412798 108.85668945 96.10668945 C114.05217404 102.22150638 119.11080949 108.44567211 124.171875 114.671875 C128.23406488 119.65598032 132.33800715 124.59925162 136.5 129.5 C157 153.65395997 157 153.65395997 157 156 C124.8429187 158.25144864 124.8429187 158.25144864 118.609375 153.4921875 C116.17451574 150.88269117 114.47476959 147.93370959 112.90966797 144.73974609 C111.48308289 142.01139257 109.50566468 139.82108544 107.5 137.5 C106.4171875 136.1696875 106.4171875 136.1696875 105.3125 134.8125 C102.73853608 131.68200334 100.12430914 128.58827539 97.5 125.5 C93.38675264 120.65954869 89.34464287 115.76751226 85.3359375 110.83984375 C82.17280888 106.99436798 78.95092861 103.19992545 75.71679688 99.4140625 C72.06018257 95.12035142 72.06018257 95.12035142 70.92993164 92.86010742 C67.73824229 89.78389222 64.00430803 90.39615632 59.73828125 90.390625 C58.53383362 90.36718018 58.53383362 90.36718018 57.30505371 90.34326172 C54.30783561 90.29069134 51.31009541 90.27239997 48.3125 90.25 C38.2578125 90.12625 38.2578125 90.12625 28 90 C28 111.78 28 133.56 28 156 C18.76 156 9.52 156 0 156 C0 104.52 0 53.04 0 0 Z " fill="#FCFCFE" transform="translate(409,47)"/>
<path d="M0 0 C15.28154955 12.75487045 28.16339143 28.9787341 34 48.3125 C34 49.6325 34 50.9525 34 52.3125 C-23.09 52.3125 -80.18 52.3125 -139 52.3125 C-137.59408324 45.98587457 -136.37128874 41.19534269 -133.5 35.625 C-133.15106689 34.94219971 -132.80213379 34.25939941 -132.44262695 33.5559082 C-120.04207537 9.98968081 -100.38578249 -7.07817032 -74.875 -15.125 C-49.33785071 -22.52082376 -20.91987476 -16.14289548 0 0 Z " fill="#2C2CBB" transform="translate(224,62.6875)"/>
<path d="M0 0 C9.9 0 19.8 0 30 0 C35.02356474 9.84849362 39.63117308 19.78460955 44 29.9375 C47.6759833 38.45769902 51.39833237 46.94328191 55.34780884 55.34074402 C58.44846657 61.93494919 61.45724167 68.5697389 64.45458984 75.21142578 C65.39373541 77.29149619 66.33549464 79.37037132 67.27734375 81.44921875 C67.88036423 82.78378373 68.4832348 84.11841647 69.0859375 85.453125 C69.6226709 86.64067383 70.1594043 87.82822266 70.71240234 89.05175781 C72 92 72 92 73 95 C85.59750439 67.84001274 85.59750439 67.84001274 97.9375 40.5625 C101.98952506 31.48553118 106.05964135 22.41778873 110.1875 13.375 C110.64568115 12.36638916 111.1038623 11.35777832 111.57592773 10.31860352 C111.99817627 9.39619873 112.4204248 8.47379395 112.85546875 7.5234375 C113.22309326 6.71825684 113.59071777 5.91307617 113.96948242 5.08349609 C115 3 115 3 117 0 C119.79736328 -0.34057617 119.79736328 -0.34057617 123.3203125 -0.29296875 C124.57714844 -0.28330078 125.83398438 -0.27363281 127.12890625 -0.26367188 C129.10697266 -0.2259668 129.10697266 -0.2259668 131.125 -0.1875 C132.46482903 -0.17245483 133.80467404 -0.15876613 135.14453125 -0.14648438 C138.43008842 -0.11102872 141.71484582 -0.06160849 145 0 C144.40830044 3.5655361 143.45891093 6.46556587 141.85791016 9.70068359 C141.41299225 10.60708588 140.96807434 11.51348816 140.50967407 12.44735718 C139.78172134 13.90814194 139.78172134 13.90814194 139.0390625 15.3984375 C138.28125992 16.93741196 138.28125992 16.93741196 137.50814819 18.50747681 C135.88592681 21.79939664 134.25580609 25.08732581 132.625 28.375 C130.51080056 32.65255126 128.39973132 36.93164323 126.2890625 41.2109375 C125.76314011 42.27597504 125.23721771 43.34101257 124.69535828 44.43832397 C120.23624894 53.48291816 115.8783363 62.57378326 111.54101562 71.67724609 C109.23450286 76.51647058 106.90419829 81.3436797 104.55859375 86.1640625 C104.21634262 86.86756332 103.87409149 87.57106415 103.52146912 88.29588318 C102.1297764 91.15453162 100.73652565 94.01241511 99.34182739 96.86959839 C95.36547507 105.01668892 91.43634423 113.17504444 87.65869141 121.41674805 C81.02478433 135.78932921 73.11806756 147.05363959 57.88671875 153.1953125 C51.90827689 155.27262324 46.41387748 155.61590768 40.125 155.5 C38.54900024 155.48296021 38.54900024 155.48296021 36.94116211 155.46557617 C24.6752362 155.15909407 16.8666811 152.03704506 6 146 C6 139.07 6 132.14 6 125 C10.49708262 126.79883305 14.82019113 128.787204 19.18359375 130.87890625 C27.66686088 134.25574074 41.04362831 134.81891263 49.75 131.75 C57.40466064 127.62825966 60.16460212 122.64443564 64 115 C60.7 115 57.4 115 54 115 C47.07294093 100.76026146 40.19160424 86.50632974 33.5625 72.125 C28.96451514 62.15212454 24.24339464 52.24881767 19.4375 42.375 C14.55176646 32.33413148 9.74450235 22.26263271 5.0625 12.125 C4.5480835 11.01302246 4.03366699 9.90104492 3.50366211 8.75537109 C0 1.1299325 0 1.1299325 0 0 Z " fill="#FCFCFE" transform="translate(700,85)"/>
<path d="M0 0 C9.05644093 6.49889213 14.86030465 14.03061054 17.49609375 24.875 C19.62095009 38.05240366 17.88222861 49.44878786 10.7265625 60.67578125 C4.83127512 68.61174503 -3.23670387 73.47270075 -13 75 C-28.81785941 76.12589198 -39.96994159 72.40156184 -52.1171875 62.2265625 C-58.08830326 56.72012501 -62.06434648 50.0335626 -66 43 C-66.59167969 42.00226563 -67.18335938 41.00453125 -67.79296875 39.9765625 C-69.26850039 36.33787282 -69.11282046 34.74137913 -68 31 C-61.14654903 16.24410047 -50.99932183 4.18652006 -35.80078125 -2.3828125 C-23.27922215 -6.70267487 -11.73899907 -6.3976801 0 0 Z " fill="#2B2BBB" transform="translate(1418,109)"/>
<path d="M0 0 C4.57461677 2.88517145 8.16770944 6.16770944 12 10 C12.33 6.04 12.66 2.08 13 -2 C17.95 -2 22.9 -2 28 -2 C28.09936531 5.7738071 28.17170448 13.54723906 28.21972656 21.3215332 C28.23975996 23.96254929 28.26699451 26.60352149 28.30175781 29.24438477 C28.350639 33.05496091 28.37305267 36.86494721 28.390625 40.67578125 C28.41127014 41.84393875 28.43191528 43.01209625 28.45318604 44.21565247 C28.45615787 55.23576925 25.73640768 64.89011057 18 73 C8.85713824 81.19319587 -0.34660329 83.17804371 -12.375 83.1875 C-13.59316406 83.20586914 -13.59316406 83.20586914 -14.8359375 83.22460938 C-23.09812164 83.24447039 -29.53574312 81.45162309 -37 77.875 C-38.134375 77.33617187 -39.26875 76.79734375 -40.4375 76.2421875 C-41.283125 75.83226562 -42.12875 75.42234375 -43 75 C-43 70.71 -43 66.42 -43 62 C-38.66502166 63.73399134 -34.70165252 65.68707306 -30.59765625 67.87890625 C-22.29507921 71.46212371 -9.44789423 71.38567303 -0.8125 68.8125 C5.57275405 66.17827922 8.69257029 61.62091638 11.28515625 55.42578125 C12.43663371 51.51830855 12.25708185 48.04903907 12 44 C11.63390625 44.43570313 11.2678125 44.87140625 10.890625 45.3203125 C4.05969965 52.83433039 -4.84357684 57.42786132 -14.98046875 58.23828125 C-25.49331079 58.48157479 -32.29902776 56.57625975 -40.375 49.75 C-47.56001151 42.801857 -49.57004447 37.16478717 -50.03125 27.1796875 C-49.94405907 18.30801019 -47.24434359 11.63191171 -41.24609375 5.0859375 C-29.74920316 -5.83030205 -14.0168702 -7.21879887 0 0 Z " fill="#FAFAFD" transform="translate(1549,304)"/>
<path d="M0 0 C5.28 0 10.56 0 16 0 C16 29.37 16 58.74 16 89 C10.72 89 5.44 89 0 89 C-0.33 84.71 -0.66 80.42 -1 76 C-2.299375 77.4025 -3.59875 78.805 -4.9375 80.25 C-12.87338745 88.22349829 -21.38952165 90.31270991 -32.37402344 90.39160156 C-38.90376111 90.27801682 -43.59157764 88.74009852 -49 85 C-49.9075 84.443125 -50.815 83.88625 -51.75 83.3125 C-59.9055706 74.93038577 -62.0115366 65.87529835 -62.375 54.5625 C-62.19065385 44.31080552 -59.33743484 37.42820221 -52.28515625 29.98046875 C-44.6716203 23.38207092 -36.10037771 21.55124121 -26.26171875 21.66015625 C-17.02295781 22.62275769 -9.23559978 27.25276127 -3 34 C-2.34 34.99 -1.68 35.98 -1 37 C-0.67 24.79 -0.34 12.58 0 0 Z " fill="#F7F7FC" transform="translate(1061,278)"/>
<path d="M0 0 C7.30618378 5.1818648 12.57744628 11.25790178 15 20 C15.42676456 23.30324636 15.47768801 26.54730621 15.4375 29.875 C15.42920166 30.75833008 15.42090332 31.64166016 15.41235352 32.55175781 C15.16491492 42.08650897 12.81114617 49.22309452 6.07421875 56.171875 C-2.37584488 63.61938871 -10.40449863 65.17576457 -21.390625 64.57421875 C-33.18078711 63.42460564 -38.1796004 57.79794954 -46 49 C-46.33 59.89 -46.66 70.78 -47 82 C-52.28 82 -57.56 82 -63 82 C-63 54.28 -63 26.56 -63 -2 C-57.72 -2 -52.44 -2 -47 -2 C-46.67 2.29 -46.34 6.58 -46 11 C-44.72125 9.618125 -43.4425 8.23625 -42.125 6.8125 C-30.58107387 -4.76789983 -14.70396665 -7.72466451 0 0 Z " fill="#F8F8FC" transform="translate(471,304)"/>
<path d="M0 0 C1.00998047 0.00966797 2.01996094 0.01933594 3.06054688 0.02929688 C7.65847511 0.09910041 11.64179328 0.40335866 16.1875 1.3125 C16.1875 9.2325 16.1875 17.1525 16.1875 25.3125 C14.33125 25.1475 12.475 24.9825 10.5625 24.8125 C-4.71232038 23.68226302 -18.27695732 23.32620214 -30.8125 33.3125 C-40.54550105 43.92016845 -42.4136555 55.94436245 -42.421875 69.82421875 C-42.43688979 71.28825173 -42.45362374 72.75226798 -42.47198486 74.21626282 C-42.51530158 78.03181829 -42.53557713 81.84714546 -42.55072021 85.66290283 C-42.57042155 89.57162785 -42.61237591 93.48011085 -42.65234375 97.38867188 C-42.72725847 105.0299129 -42.77572068 112.67096282 -42.8125 120.3125 C-52.0525 120.3125 -61.2925 120.3125 -70.8125 120.3125 C-70.8125 81.3725 -70.8125 42.4325 -70.8125 2.3125 C-61.5725 2.3125 -52.3325 2.3125 -42.8125 2.3125 C-42.4825 9.9025 -42.1525 17.4925 -41.8125 25.3125 C-40.554375 23.3325 -39.29625 21.3525 -38 19.3125 C-28.92426795 5.81676857 -16.07133212 -0.47053347 0 0 Z " fill="#FAFAFD" transform="translate(1705.8125,82.6875)"/>
<path d="M0 0 C6.46210142 6.48902685 10.14548717 14.80288618 10.5 23.9375 C10.06898655 34.13815156 6.56786776 41.51232452 -0.5 48.8359375 C-11.63752164 58.47685467 -25.41980656 58.90888148 -39.42919922 58.22949219 C-49.52788164 57.32799537 -57.52040118 51.52392977 -64 44 C-69.61487173 35.17663015 -71.25246036 26.72159048 -69.57421875 16.375 C-66.9289791 5.98878296 -60.68540727 -0.10170207 -51.74609375 -5.58984375 C-35.50963398 -13.92748526 -13.99363591 -11.46189257 0 0 Z " fill="#FAFAFD" transform="translate(925,310)"/>
<path d="M0 0 C4.39685606 2.72908307 8.41863827 6.61845367 9.94921875 11.65625 C10.10583984 12.5225 10.10583984 12.5225 10.265625 13.40625 C10.925625 13.40625 11.585625 13.40625 12.265625 13.40625 C12.430625 12.725625 12.595625 12.045 12.765625 11.34375 C15.66224965 5.6711934 21.57844891 1.17298432 27.265625 -1.59375 C35.05423494 -4.04159884 43.2642559 -2.97062405 50.71484375 0.01171875 C57.25878961 3.58934306 60.92290306 9.50823541 63.265625 16.40625 C64.59433288 21.32494145 64.39179752 26.24666944 64.36328125 31.30078125 C64.3618663 32.24813644 64.36045135 33.19549164 64.35899353 34.17155457 C64.35341111 37.18731895 64.34086182 40.20300818 64.328125 43.21875 C64.32310773 45.26757705 64.31854522 47.31640527 64.31445312 49.36523438 C64.30344743 54.37893506 64.28619488 59.3925798 64.265625 64.40625 C59.315625 64.40625 54.365625 64.40625 49.265625 64.40625 C49.2562793 63.2416626 49.24693359 62.0770752 49.23730469 60.87719727 C49.19717672 56.52135151 49.13135631 52.16619521 49.05810547 47.81079102 C49.03002736 45.93230096 49.0087479 44.05369566 48.99462891 42.17504883 C48.97301575 39.46115671 48.92627453 36.74863128 48.875 34.03515625 C48.87377136 33.20665665 48.87254272 32.37815704 48.87127686 31.52455139 C48.69406715 24.33366559 46.86709722 18.07275902 41.765625 12.84375 C36.01898877 10.48352441 30.13045709 10.41203595 24.109375 11.9609375 C19.59339074 14.04066709 17.42448262 17.65470293 15.32446289 22.00927734 C12.96852928 29.56760345 13.47647881 37.68153953 13.453125 45.53125 C13.42994865 47.36461266 13.40457687 49.19794895 13.37695312 51.03125 C13.31450657 55.48968187 13.28185165 59.94742014 13.265625 64.40625 C8.315625 64.40625 3.365625 64.40625 -1.734375 64.40625 C-1.74895752 63.26671875 -1.76354004 62.1271875 -1.77856445 60.953125 C-1.8368532 56.69614413 -1.91408262 52.4396754 -1.99682617 48.18310547 C-2.02993238 46.34627642 -2.05800817 44.50934914 -2.08081055 42.67236328 C-2.11462131 40.02073589 -2.16694793 37.36999717 -2.22265625 34.71875 C-2.22904617 33.90696289 -2.2354361 33.09517578 -2.24201965 32.25878906 C-2.41609539 25.39743274 -3.65991103 19.78429406 -8.296875 14.46875 C-12.65879694 10.77789297 -16.17025126 11.07160528 -21.75 11.125 C-26.99401019 11.61919991 -29.54026778 14.11263385 -32.984375 17.84375 C-36.72066233 23.31474216 -37.05847962 27.98320478 -37.1484375 34.42578125 C-37.16780365 35.28435226 -37.1871698 36.14292328 -37.2071228 37.0275116 C-37.26669056 39.75782474 -37.31321234 42.48818057 -37.359375 45.21875 C-37.39757579 47.07488773 -37.43662875 48.93100812 -37.4765625 50.78710938 C-37.57237327 55.32668144 -37.65648821 59.86633646 -37.734375 64.40625 C-42.684375 64.40625 -47.634375 64.40625 -52.734375 64.40625 C-52.734375 42.95625 -52.734375 21.50625 -52.734375 -0.59375 C-47.784375 -0.59375 -42.834375 -0.59375 -37.734375 -0.59375 C-37.404375 2.70625 -37.074375 6.00625 -36.734375 9.40625 C-35.909375 8.33375 -35.084375 7.26125 -34.234375 6.15625 C-25.76384637 -3.78304012 -11.55669666 -5.21915333 0 0 Z " fill="#FBFBFD" transform="translate(1176.734375,302.59375)"/>
<path d="M0 0 C5.49601305 4.59160584 8.63805832 10.40085135 10.5 17.25 C10.76524338 20.58339021 10.73324019 23.90007376 10.6953125 27.2421875 C10.6924826 28.18812775 10.68965271 29.13406799 10.68673706 30.1086731 C10.67558932 33.11424694 10.65049465 36.11951702 10.625 39.125 C10.61496321 41.16926651 10.60583859 43.21353772 10.59765625 45.2578125 C10.57566767 50.25532444 10.54117509 55.2526108 10.5 60.25 C5.22 60.25 -0.06 60.25 -5.5 60.25 C-5.5 57.94 -5.5 55.63 -5.5 53.25 C-6.30824219 53.65992188 -7.11648438 54.06984375 -7.94921875 54.4921875 C-9.01785156 55.03101563 -10.08648438 55.56984375 -11.1875 56.125 C-12.24324219 56.65867187 -13.29898437 57.19234375 -14.38671875 57.7421875 C-15.41410156 58.23976563 -16.44148438 58.73734375 -17.5 59.25 C-18.26441406 59.63671875 -19.02882813 60.0234375 -19.81640625 60.421875 C-27.64072981 62.83636786 -39.25950831 62.76248104 -46.8125 59.5625 C-48.78125 58.43359375 -48.78125 58.43359375 -50.5 57.25 C-52.1396875 56.198125 -52.1396875 56.198125 -53.8125 55.125 C-58.0166681 50.62751785 -60.18217508 45.82149023 -60.73046875 39.66015625 C-60.46139159 33.19233865 -58.22064652 28.65724261 -53.5 24.25 C-44.83605294 18.22420983 -37.57926247 18.06796522 -27.25 18.0625 C-26.04730469 18.05025391 -24.84460937 18.03800781 -23.60546875 18.02539062 C-17.20838268 18.01485755 -11.61374385 18.32614777 -5.5 20.25 C-7.89581316 14.64163711 -9.73127401 10.9770341 -15.5 8.25 C-27.78404375 4.49711184 -39.88481204 6.31611485 -51.5 11.25 C-52.49 11.58 -53.48 11.91 -54.5 12.25 C-54.5 8.29 -54.5 4.33 -54.5 0.25 C-37.57777418 -7.9941613 -16.5839727 -11.32413061 0 0 Z " fill="#F8F8FC" transform="translate(1478.5,306.75)"/>
<path d="M0 0 C10.91645848 -0.35009051 22.15478606 1.48042735 30.3671875 9.1640625 C34.55264907 14.34058474 37.49929369 18.9453023 37.48071289 25.72729492 C37.48059959 27.10838692 37.48059959 27.10838692 37.48048401 28.51737976 C37.47532272 29.50808975 37.47016144 30.49879974 37.46484375 31.51953125 C37.4634288 32.53630447 37.46201385 33.5530777 37.46055603 34.60066223 C37.45495457 37.85099214 37.44240182 41.10125338 37.4296875 44.3515625 C37.42467269 46.55403546 37.42010975 48.75650951 37.41601562 50.95898438 C37.40498466 56.36070357 37.38771904 61.76237139 37.3671875 67.1640625 C32.4171875 67.1640625 27.4671875 67.1640625 22.3671875 67.1640625 C21.8721875 63.2040625 21.8721875 63.2040625 21.3671875 59.1640625 C20.5834375 59.9065625 19.7996875 60.6490625 18.9921875 61.4140625 C9.56308718 69.0399017 -1.02188263 69.18630137 -12.6328125 68.1640625 C-19.76369913 67.08039995 -24.88476406 63.53626754 -29.6328125 58.1640625 C-32.71894386 52.95621583 -33.53251551 48.09392326 -32.6328125 42.1640625 C-30.76775307 36.08041626 -27.05726734 31.47141896 -21.6328125 28.1640625 C-14.22753619 24.48756061 -7.16014957 24.74965829 0.9921875 24.8515625 C2.28898438 24.84833984 3.58578125 24.84511719 4.921875 24.84179688 C10.87998251 24.87551045 15.7456553 25.02983447 21.3671875 27.1640625 C20.53249204 23.2182294 19.94361254 20.74048754 17.0546875 17.8515625 C8.19225289 12.28677798 -0.91247271 12.79051049 -10.8828125 14.4140625 C-11.63908936 14.53547607 -12.39536621 14.65688965 -13.17456055 14.78198242 C-18.03165908 15.65059736 -22.16841358 17.06177941 -26.6328125 19.1640625 C-26.6328125 15.2040625 -26.6328125 11.2440625 -26.6328125 7.1640625 C-17.60544619 2.4947351 -10.10337008 0.62958686 0 0 Z " fill="#FAFAFD" transform="translate(527.6328125,299.8359375)"/>
<path d="M0 0 C4.89934358 5.17152933 8.38403562 12.59656721 8.36352539 19.75463867 C8.36341209 21.07566841 8.36341209 21.07566841 8.36329651 22.42338562 C8.35813522 23.37034805 8.35297394 24.31731049 8.34765625 25.29296875 C8.3462413 26.26534988 8.34482635 27.23773102 8.34336853 28.23957825 C8.33776817 31.34725004 8.32521562 34.45484996 8.3125 37.5625 C8.30748505 39.66861875 8.30292213 41.77473863 8.29882812 43.88085938 C8.28779862 49.04560064 8.27053375 54.21028813 8.25 59.375 C3.3 59.375 -1.65 59.375 -6.75 59.375 C-7.245 55.415 -7.245 55.415 -7.75 51.375 C-8.29527344 51.77332031 -8.84054687 52.17164063 -9.40234375 52.58203125 C-20.24215236 60.19769166 -30.63526311 61.98764525 -43.75 60.375 C-51.84074227 58.13586468 -56.92187431 53.13139321 -61.125 46.0625 C-62.50502077 40.1284107 -62.8420004 34.54901417 -59.75 29.125 C-55.39715413 23.03348198 -49.89192272 19.41858249 -42.75 17.375 C-39.50195312 17.11621094 -39.50195312 17.11621094 -36.03125 17.109375 C-34.76925781 17.10679687 -33.50726562 17.10421875 -32.20703125 17.1015625 C-30.90121094 17.10929687 -29.59539062 17.11703125 -28.25 17.125 C-26.94417969 17.11726563 -25.63835937 17.10953125 -24.29296875 17.1015625 C-23.03097656 17.10414063 -21.76898437 17.10671875 -20.46875 17.109375 C-18.75075195 17.11275879 -18.75075195 17.11275879 -16.99804688 17.11621094 C-13.62740826 17.38476753 -10.89939119 18.17460752 -7.75 19.375 C-9.03412983 14.35521976 -10.66191024 11.59328343 -14.75 8.375 C-25.5093797 2.86302269 -37.64734186 5.09735358 -48.75 8.375 C-51.17812454 9.26158495 -53.42460805 10.23934347 -55.75 11.375 C-55.75 7.415 -55.75 3.455 -55.75 -0.625 C-37.66617709 -9.97870151 -17.77423311 -10.50295593 0 0 Z " fill="#FBFBFD" transform="translate(1313.75,307.625)"/>
<path d="M0 0 C5.28 0 10.56 0 16 0 C16.46148438 1.15371094 16.92296875 2.30742187 17.3984375 3.49609375 C17.8634668 4.65830444 17.8634668 4.65830444 18.33789062 5.84399414 C19.03778088 7.59421405 19.73698364 9.344709 20.43554688 11.09545898 C22.5268582 16.33331791 24.63327961 21.56458224 26.7578125 26.7890625 C27.21365723 27.91513916 27.66950195 29.04121582 28.13916016 30.20141602 C29.03836461 32.42232517 29.94161402 34.64160137 30.84912109 36.85913086 C31.4652124 38.38485718 31.4652124 38.38485718 32.09375 39.94140625 C32.46177734 40.84576416 32.82980469 41.75012207 33.20898438 42.68188477 C34 45 34 45 34 48 C34.66 48 35.32 48 36 48 C36.12294434 47.12255127 36.24588867 46.24510254 36.37255859 45.34106445 C36.96827475 42.16893387 37.82643413 39.5247854 39.0390625 36.54296875 C39.45172363 35.52001709 39.86438477 34.49706543 40.28955078 33.44311523 C40.73024902 32.36876221 41.17094727 31.29440918 41.625 30.1875 C42.07214355 29.08414307 42.51928711 27.98078613 42.97998047 26.84399414 C44.31312721 23.55981363 45.65503817 20.27935724 47 17 C47.57234375 15.60104492 47.57234375 15.60104492 48.15625 14.17382812 C50.09225765 9.44413297 52.04342078 4.72131074 54 0 C59.28 0 64.56 0 70 0 C72.91483202 6.77269793 75.58941892 13.53618565 78 20.5 C80.40997231 27.45175406 83.07146203 34.24782275 86 41 C87.00046835 43.33313256 88.00051614 45.66644553 89 48 C89.32685791 47.14994385 89.65371582 46.2998877 89.99047852 45.42407227 C95.84263812 30.21792447 101.70225735 15.02870405 108 0 C112.95 0 117.9 0 123 0 C120.77448889 7.89074127 117.96736281 15.41086578 114.89453125 23.0078125 C114.4104631 24.2144455 113.92639496 25.42107849 113.42765808 26.66427612 C112.15415429 29.83858897 110.87548297 33.01079402 109.59564209 36.18255615 C108.28518026 39.43292229 106.97972959 42.68529962 105.67382812 45.9375 C103.12072482 52.29362065 100.56168239 58.64733215 98 65 C92.39 65 86.78 65 81 65 C80.2575 62.81375 79.515 60.6275 78.75 58.375 C76.6421104 52.28217729 74.33869353 46.27657173 71.9296875 40.296875 C71.65958862 39.62633087 71.38948975 38.95578674 71.11120605 38.2649231 C69.73797344 34.86338385 68.35533668 31.4658946 66.96386719 28.07177734 C66.44721539 26.80047614 65.93061174 25.52915537 65.4140625 24.2578125 C64.9495166 23.1248877 64.4849707 21.99196289 64.00634766 20.82470703 C63 18 63 18 63 15 C62.34 15 61.68 15 61 15 C60.89727783 15.66427002 60.79455566 16.32854004 60.6887207 17.01293945 C59.82339602 20.7659517 58.4288727 24.23673373 56.98046875 27.79296875 C56.68062576 28.53903885 56.38078278 29.28510895 56.07185364 30.05378723 C55.1144557 32.43334859 54.15110518 34.81044643 53.1875 37.1875 C52.55103231 38.76611483 51.91496074 40.34488944 51.27929688 41.92382812 C50.0638208 44.94145955 48.84621939 47.95821661 47.62646484 50.97412109 C45.7382395 55.64434548 43.86682492 60.32118187 42 65 C36.72 65 31.44 65 26 65 C19.30922129 48.95928695 12.71120481 32.884667 6.25 16.75 C5.93641541 15.96853607 5.62283081 15.18707214 5.29974365 14.38192749 C4.41138434 12.16686484 3.52552697 9.95082075 2.640625 7.734375 C2.37244965 7.06592056 2.10427429 6.39746613 1.82797241 5.70875549 C0 1.11531577 0 1.11531577 0 0 Z " fill="#FAFAFD" transform="translate(729,302)"/>
<path d="M0 0 C6.85565431 5.59129184 10.45143054 12.89908755 12.6875 21.3125 C12.87699219 21.89386719 13.06648438 22.47523438 13.26171875 23.07421875 C13.90003219 26.4297564 13.6875 29.89678968 13.6875 33.3125 C-4.7925 33.6425 -23.2725 33.9725 -42.3125 34.3125 C-37.43220002 42.8849648 -37.43220002 42.8849648 -29.1484375 47.421875 C-16.52428805 50.35294025 -5.04050472 48.49354626 6.6875 43.3125 C8.35229579 42.64117504 10.01829211 41.97277817 11.6875 41.3125 C12.03445922 45.03909901 12.17718389 48.59413109 11.6875 52.3125 C9.43480984 54.68695719 8.60330421 55.22185568 5.6875 56.3125 C4.80578125 56.66828125 3.9240625 57.0240625 3.015625 57.390625 C-8.86072212 61.94857443 -24.82117156 64.36287267 -37.0625 59.6875 C-39.25 58.5703125 -39.25 58.5703125 -41.3125 57.3125 C-42.09625 56.87679687 -42.88 56.44109375 -43.6875 55.9921875 C-51.12997029 51.51201624 -56.40386027 45.42331595 -58.83984375 36.9921875 C-60.72895332 26.28202909 -59.95578273 16.56762926 -54.0625 7.359375 C-48.71970373 0.37731169 -39.9351358 -4.52393718 -31.38671875 -6.29296875 C-19.78690747 -7.78163576 -9.81830839 -6.67570589 0 0 Z " fill="#FAFAFD" transform="translate(1648.3125,306.6875)"/>
<path d="M0 0 C4.91492158 4.33425574 6.30583534 7.38965928 7 14 C-6.62501224 14.92547253 -6.62501224 14.92547253 -9.828125 12.76953125 C-10.92433791 11.20626989 -11.96276431 9.60300061 -13 8 C-18.85582693 5.23939588 -23.76748755 4.52813477 -30.1875 4.625 C-30.96802734 4.61339844 -31.74855469 4.60179687 -32.55273438 4.58984375 C-37.61427154 4.61560221 -41.25297709 5.25297709 -45 9 C-45.04063832 10.66617115 -45.042721 12.33388095 -45 14 C-40.71496147 16.397086 -37.34177629 17.43784651 -32.45703125 17.80859375 C-30.59788086 17.97004883 -30.59788086 17.97004883 -28.70117188 18.13476562 C-26.12843873 18.33505374 -23.55552266 18.5330072 -20.98242188 18.72851562 C-11.93324864 19.51967459 -3.16087734 20.60336544 4.0625 26.5 C8.81551678 32.63292488 8.76682956 38.39797363 8 46 C5.00900284 52.31432733 0.50445327 55.55619205 -5.8671875 58.08984375 C-12.32027215 60.38144471 -18.27010513 60.56056502 -25.0625 60.4375 C-26.16916016 60.44458984 -27.27582031 60.45167969 -28.41601562 60.45898438 C-39.50740973 60.37381714 -48.30285124 58.02530421 -57 51 C-61.12481615 46.66365482 -63 43.01007929 -63 37 C-57.72 37 -52.44 37 -47 37 C-46.01 38.98 -45.02 40.96 -44 43 C-36.32255763 48.97134406 -26.25006917 48.78390417 -17 48 C-13.57272458 47.19787171 -10.72217483 46.27422201 -8 44 C-6.78209281 40.883975 -6.78209281 40.883975 -7 38 C-11.4139191 35.5237758 -15.0300207 34.49716343 -20.05078125 33.97265625 C-21.40300806 33.81847573 -22.75522118 33.66417505 -24.10742188 33.50976562 C-26.20651193 33.28403335 -28.30601852 33.06317045 -30.40600586 32.84594727 C-41.53536511 31.67216299 -50.77746046 30.0219898 -59 22 C-62.07563476 17.08752781 -61.9222927 11.57665352 -61 6 C-57.33784479 -0.90132593 -51.16165683 -4.19652954 -44.0546875 -6.6796875 C-29.85070002 -10.62223916 -12.00542372 -8.77866952 0 0 Z " fill="#FAFAFD" transform="translate(718,308)"/>
<path d="M0 0 C3.96904273 4.16749486 6.5 7.67291294 6.5 13.625 C-7.10103627 14.54884397 -7.10103627 14.54884397 -10.36328125 12.39453125 C-11.47361535 10.84922091 -12.48865393 9.23683281 -13.5 7.625 C-19.06055864 4.54696173 -23.78364599 4.16121809 -30.0625 4.25 C-31.2990332 4.23259766 -31.2990332 4.23259766 -32.56054688 4.21484375 C-37.63153972 4.23916506 -41.06529737 4.90811573 -45.5 7.625 C-45.91746608 10.49864791 -45.91746608 10.49864791 -45.5 13.625 C-41.60087957 16.72329254 -37.98165146 17.17823052 -33.109375 17.65234375 C-31.66275137 17.80655577 -30.21613708 17.96085545 -28.76953125 18.11523438 C-26.51456575 18.34092654 -24.25919382 18.56161379 -22.00341797 18.77905273 C-1.52681098 20.79347656 -1.52681098 20.79347656 4.5 27.75 C8.45040617 33.42870887 8.31861048 38.82973822 7.5 45.625 C5.0988845 51.28667086 1.05625873 54.41633054 -4.47265625 56.8359375 C-5.47619141 57.22652344 -5.47619141 57.22652344 -6.5 57.625 C-7.23839111 57.9643457 -7.97678223 58.30369141 -8.73754883 58.65332031 C-13.99819576 60.50372904 -19.60330889 59.99427804 -25.125 60 C-26.34574219 60.02449219 -27.56648437 60.04898438 -28.82421875 60.07421875 C-39.94381688 60.1098966 -49.78832732 57.81430193 -58.15625 50.09765625 C-62.32480513 45.76196566 -63.29019449 42.60445711 -63.5 36.625 C-61.08063683 36.46250546 -58.67218141 36.34402183 -56.25 36.25 C-55.56808594 36.19972656 -54.88617187 36.14945312 -54.18359375 36.09765625 C-52.171875 36.0390625 -52.171875 36.0390625 -48.5 36.625 C-46.234375 39.50390625 -46.234375 39.50390625 -44.5 42.625 C-36.67195082 48.8908727 -26.95965481 48.16769038 -17.5 47.625 C-14.38807355 46.95473892 -12.33506585 46.12932066 -9.5 44.625 C-8.14560332 41.91620665 -8.43498549 39.61566732 -8.5 36.625 C-12.55121428 34.76287643 -16.21237701 34.17361538 -20.63671875 33.73046875 C-22.03327997 33.57817702 -23.4297621 33.42515856 -24.82617188 33.27148438 C-26.99955587 33.03981624 -29.17305192 32.813912 -31.34838867 32.60131836 C-41.38679006 31.60468692 -51.56192547 30.53360303 -58.5625 22.4375 C-62.31304519 16.99316021 -62.07143291 12.12398329 -61.5 5.625 C-58.95634907 -0.61850682 -53.51539446 -3.79811351 -47.5 -6.375 C-32.13784777 -10.56990192 -13.07595052 -9.77459668 0 0 Z " fill="#FBFBFD" transform="translate(639.5,308.375)"/>
<path d="M0 0 C5.77712188 4.80402511 9.46603732 10.93534145 10.26268005 18.49153137 C10.34498966 21.28040004 10.33773541 24.05403752 10.29296875 26.84375 C10.28872391 27.85344849 10.28447906 28.86314697 10.28010559 29.90344238 C10.26342214 33.10257557 10.22578903 36.30105983 10.1875 39.5 C10.17243982 41.67967835 10.15875375 43.85936665 10.14648438 46.0390625 C10.11355245 51.35962193 10.06184181 56.67970125 10 62 C5.05 62 0.1 62 -5 62 C-5.0093457 60.79988281 -5.01869141 59.59976563 -5.02832031 58.36328125 C-5.0683912 53.88260683 -5.13419684 49.40260671 -5.20751953 44.92236328 C-5.23563035 42.98853257 -5.25689379 41.05458907 -5.27099609 39.12060547 C-5.29256321 36.32982045 -5.33928256 33.54037741 -5.390625 30.75 C-5.39185364 29.89446533 -5.39308228 29.03893066 -5.39434814 28.1574707 C-5.53220238 22.42307258 -6.58579195 17.71661031 -10 13 C-15.11782418 8.86815905 -20.65405793 8.30670025 -27.09765625 8.55859375 C-32.4056791 9.36587044 -35.99884068 11.58768607 -39.41679382 15.70788574 C-42.98043291 21.0290581 -43.73690682 25.19808861 -43.70703125 31.53125 C-43.72215256 32.40777222 -43.73727386 33.28429443 -43.75285339 34.18737793 C-43.79548561 36.95851866 -43.80454442 39.72856503 -43.8125 42.5 C-43.83566342 44.3906536 -43.86103258 46.28128154 -43.88867188 48.171875 C-43.95128205 52.7813457 -43.98380835 57.39014204 -44 62 C-49.28 62 -54.56 62 -60 62 C-60 40.55 -60 19.1 -60 -3 C-54.72 -3 -49.44 -3 -44 -3 C-43.67 0.3 -43.34 3.6 -43 7 C-42.319375 6.278125 -41.63875 5.55625 -40.9375 4.8125 C-29.33312303 -6.69381182 -14.20703548 -8.47905441 0 0 Z " fill="#F8F8FC" transform="translate(1397,305)"/>
<path d="M0 0 C4.66497565 2.89346591 8.15173085 7.23735761 10.16015625 12.33984375 C10.88771229 19.20932636 11.28418902 26.55526556 7.63671875 32.65625 C3.14847824 37.77379407 -2.74069869 41.07854977 -9.5 41.6484375 C-18.62295845 42.01239914 -25.72875419 41.81916296 -32.83984375 35.33984375 C-38.05093144 29.49838255 -38.24191416 23.39966203 -38.1875 15.8671875 C-37.57378704 9.64041445 -34.82025645 6.26814033 -30.46484375 2.02734375 C-20.96675009 -4.0785736 -10.4144701 -4.75848146 0 0 Z " fill="#2C2CBB" transform="translate(908.83984375,314.66015625)"/>
<path d="M0 0 C8.77254037 5.43631669 14.01598442 11.81923113 17.578125 21.59765625 C17.578125 22.91765625 17.578125 24.23765625 17.578125 25.59765625 C-7.171875 25.59765625 -31.921875 25.59765625 -57.421875 25.59765625 C-55.73491883 15.47591922 -50.64560585 8.59745988 -42.421875 2.59765625 C-30.60241082 -5.49335035 -12.80245683 -6.41910894 0 0 Z " fill="#2C2CBB" transform="translate(1565.421875,107.40234375)"/>
<path d="M0 0 C5.77149795 4.74999389 9.84845512 10.7307351 12.25 17.8125 C12.25 19.1325 12.25 20.4525 12.25 21.8125 C-12.5 21.8125 -37.25 21.8125 -62.75 21.8125 C-61.14818729 12.20162374 -56.55958689 5.71310373 -49.12109375 -0.49609375 C-34.69552598 -10.78649053 -14.11983455 -10.03558489 0 0 Z " fill="#2C2CBB" transform="translate(1111.75,111.1875)"/>
<path d="M0 0 C6.03801454 5.04441721 9.92566416 11.98795601 12.5625 19.3125 C12.5625 20.3025 12.5625 21.2925 12.5625 22.3125 C-12.1875 22.3125 -36.9375 22.3125 -62.4375 22.3125 C-61.06561415 12.70929902 -56.21664589 5.2577788 -48.4375 -0.6875 C-33.66308756 -9.00079913 -14.41216876 -9.8177772 0 0 Z " fill="#2B2BBB" transform="translate(1259.4375,110.6875)"/>
<path d="M0 0 C4.72475299 4.50252534 8.97719816 9.70544272 11 16 C11 17.65 11 19.3 11 21 C-13.42 21 -37.84 21 -63 21 C-61.64809333 11.53665334 -58.46981802 5.71901927 -51.125 -0.4375 C-36.61588552 -11.22688648 -14.2846198 -11.46333314 0 0 Z " fill="#2B2BBB" transform="translate(657,112)"/>
<path d="M0 0 C5.25526133 4.21515753 9.72425048 9.58760162 12 16 C11.07210437 23.54099304 5.74386251 29.97587409 0.0234375 34.55859375 C-6.65828202 39.31835148 -13.01896797 39.81144198 -21 39 C-26.4937249 37.10216776 -30.45213854 33.92429852 -33.19921875 28.734375 C-36.50095608 21.18092679 -37.12905589 15.68167724 -34.4375 7.875 C-31.69452839 1.59707202 -27.91344007 -1.73567695 -21.6875 -4.4375 C-13.77452468 -5.64456403 -6.6602407 -4.56503998 0 0 Z " fill="#2C2CBB" transform="translate(1050,317)"/>
<path d="M0 0 C1.28648437 -0.01675781 2.57296875 -0.03351563 3.8984375 -0.05078125 C9.43193131 0.48864739 13.33681856 2.39113683 16.875 6.6875 C17.35453125 7.25210937 17.8340625 7.81671875 18.328125 8.3984375 C22.48859154 14.53888511 22.45723455 21.13660008 21.625 28.3125 C19.36190078 34.79319323 15.6897346 38.83400329 9.86328125 42.38671875 C4.58559119 44.56963767 -2.38173604 44.20709424 -7.79296875 42.58984375 C-15.25803079 39.02336343 -20.76657854 33.74328096 -24.375 26.3125 C-25.86992389 21.74467702 -25.5755548 19.0837639 -23.5 14.875 C-17.94948716 5.79516947 -10.66787281 0.03193974 0 0 Z " fill="#2C2CBB" transform="translate(449.375,312.6875)"/>
<path d="M0 0 C3.3118089 3.3118089 6.32426796 6.95692069 8.25 11.25 C7.5273177 19.03631899 2.13095779 23.53167099 -3.3359375 28.515625 C-10.001678 33.30460361 -17.87328566 32.99274023 -25.75 32.25 C-31.44011166 30.48080562 -34.81967336 26.43017842 -37.8359375 21.4609375 C-40.06463951 16.07014546 -39.40309466 9.32453597 -37.6875 3.875 C-27.19733411 -10.33748281 -13.51276075 -8.59902957 0 0 Z " fill="#2C2CBB" transform="translate(1553.75,317.75)"/>
<path d="M0 0 C0 4.29 0 8.58 0 13 C-1.00160156 12.97679687 -2.00320313 12.95359375 -3.03515625 12.9296875 C-4.37759664 12.91091211 -5.72004518 12.89271382 -7.0625 12.875 C-8.37347656 12.85179687 -9.68445312 12.82859375 -11.03515625 12.8046875 C-17.04357786 13.10066886 -22.16181218 14.22795578 -26.65991211 18.44189453 C-33.80827356 26.75321586 -32.66608382 37.76910671 -32.75 48.0625 C-32.77819693 49.80406569 -32.80812949 51.54560419 -32.83984375 53.28710938 C-32.91326814 57.52469046 -32.96311144 61.76194982 -33 66 C-37.95 66 -42.9 66 -48 66 C-48 44.55 -48 23.1 -48 1 C-43.05 1 -38.1 1 -33 1 C-32.67 4.96 -32.34 8.92 -32 13 C-31.484375 12.13375 -30.96875 11.2675 -30.4375 10.375 C-26.88490136 5.13305375 -22.83375775 1.1603769 -16.5625 -0.375 C-10.85470604 -1.33928601 -5.6557511 -1.41393778 0 0 Z " fill="#FBFBFE" transform="translate(1723,301)"/>
<path d="M0 0 C1.05445313 -0.00257813 2.10890625 -0.00515625 3.1953125 -0.0078125 C5.875 0.125 5.875 0.125 7.875 1.125 C7.875 5.415 7.875 9.705 7.875 14.125 C6.8128125 14.07859375 5.750625 14.0321875 4.65625 13.984375 C-6.42274708 13.41650339 -6.42274708 13.41650339 -16.125 18.125 C-23.59380634 25.16922304 -24.14690008 33.56824552 -24.44140625 43.37109375 C-24.46218735 44.02707047 -24.48296844 44.68304718 -24.50437927 45.35890198 C-24.56905938 47.42667546 -24.62837466 49.49456101 -24.6875 51.5625 C-24.73076307 52.97592242 -24.77437965 54.38933407 -24.81835938 55.80273438 C-24.92531191 59.24337719 -25.02498681 62.6841207 -25.125 66.125 C-29.745 66.125 -34.365 66.125 -39.125 66.125 C-39.125 45.005 -39.125 23.885 -39.125 2.125 C-34.505 2.125 -29.885 2.125 -25.125 2.125 C-24.795 6.415 -24.465 10.705 -24.125 15.125 C-23.3 13.743125 -22.475 12.36125 -21.625 10.9375 C-18.18807965 5.76583076 -14.18935972 2.47409419 -8.265625 0.5078125 C-5.48642039 0.01080146 -2.82216305 -0.00693406 0 0 Z " fill="#FDFDFE" transform="translate(987.125,299.875)"/>
<path d="M0 0 C0.91201172 -0.00773437 1.82402344 -0.01546875 2.76367188 -0.0234375 C8.41073885 -0.00724519 13.27014006 0.64956072 18.6875 2.25 C18.35960667 8.58927111 17.45082322 11.69377779 12.6875 16.25 C6.45680148 20.70253113 0.26772891 21.99448677 -7.3125 21.25 C-11.91444933 20.28873756 -15.35719105 19.11210808 -18.875 15.9375 C-20.64320895 12.63171804 -21.00514272 10.94409453 -20.3125 7.25 C-14.57733432 0.04007743 -8.59826899 -0.07200225 0 0 Z " fill="#2E2EBC" transform="translate(1454.3125,335.75)"/>
<path d="M0 0 C0.99451172 -0.00257813 1.98902344 -0.00515625 3.01367188 -0.0078125 C4.55571289 0.00378906 4.55571289 0.00378906 6.12890625 0.015625 C7.15306641 0.00789063 8.17722656 0.00015625 9.23242188 -0.0078125 C14.43752232 0.00566349 18.83004387 0.1643157 23.69140625 2.265625 C23.56827199 8.1760695 21.70619413 11.05043159 17.87109375 15.46875 C12.665958 19.75972212 7.20632314 20.77196571 0.62890625 20.703125 C-0.39299805 20.7330957 -0.39299805 20.7330957 -1.43554688 20.76367188 C-7.54545523 20.75780261 -11.08835265 18.4858661 -15.30859375 14.265625 C-15.74609375 10.953125 -15.74609375 10.953125 -15.30859375 7.265625 C-11.12119123 1.88182176 -6.70697864 0.01682604 0 0 Z " fill="#2D2DBB" transform="translate(526.30859375,335.734375)"/>
<path d="M0 0 C0.91201172 -0.00773437 1.82402344 -0.01546875 2.76367188 -0.0234375 C8.41073885 -0.00724519 13.27014006 0.64956072 18.6875 2.25 C18.56351977 8.20105091 16.73840978 11.24544287 12.6171875 15.515625 C6.45123751 21.05749098 0.30629161 20.59932165 -7.69140625 20.6484375 C-12.25355016 20.14645403 -15.36315209 18.48458701 -19.1875 16.0625 C-21.10690038 12.97013272 -21.05901911 9.70352298 -20.3125 6.25 C-14.56715334 0.01219506 -7.94698188 -0.06654835 0 0 Z " fill="#2C2CBB" transform="translate(1288.3125,335.75)"/>
<path d="M0 0 C5.6327508 4.19181455 9.2946456 8.03572798 10.6875 15 C-2.8425 15 -16.3725 15 -30.3125 15 C-29.08801105 8.87755524 -26.79637948 6.16811332 -22.3125 2 C-15.65881592 -2.1748606 -7.40933178 -2.23677941 0 0 Z " fill="#2E2EBC" transform="translate(1635.3125,313)"/>
<path d="M0 0 C0.66 0.33 1.32 0.66 2 1 C1.28972656 1.69867188 0.57945313 2.39734375 -0.15234375 3.1171875 C-1.07144531 4.02726562 -1.99054688 4.93734375 -2.9375 5.875 C-4.31228516 7.23238281 -4.31228516 7.23238281 -5.71484375 8.6171875 C-8.01187627 10.77682255 -8.01187627 10.77682255 -9 13 C-9.66 12.67 -10.32 12.34 -11 12 C-9.92338719 10.5574598 -8.83839897 9.12116839 -7.75 7.6875 C-6.84507813 6.48673828 -6.84507813 6.48673828 -5.921875 5.26171875 C-4.09729864 3.11450388 -2.31702954 1.58398701 0 0 Z " fill="#DEDEF4" transform="translate(1603,306)"/>
<path d="M0 0 C0.66 0.33 1.32 0.66 2 1 C-1.63 4.63 -5.26 8.26 -9 12 C-9 8.00102358 -7.64683965 6.93298448 -5 4 C-3.36643049 2.62631655 -1.7074998 1.28062485 0 0 Z " fill="#E5E5F7" transform="translate(1679,90)"/>
<path d="M0 0 C0.66 0.33 1.32 0.66 2 1 C-1.3 4.3 -4.6 7.6 -8 11 C-8 7.0234755 -6.61988497 5.9109833 -4 3 C-1.75 1.1875 -1.75 1.1875 0 0 Z " fill="#4747C4" transform="translate(1679,112)"/>
<path d="M0 0 C0.66 0.33 1.32 0.66 2 1 C0.7934375 2.0828125 0.7934375 2.0828125 -0.4375 3.1875 C-3.02292072 6.02515689 -3.68042813 7.27166147 -4 11 C-4.33 11 -4.66 11 -5 11 C-5.3125 8.3125 -5.3125 8.3125 -5 5 C-2.5 2.125 -2.5 2.125 0 0 Z " fill="#4C4CC6" transform="translate(1439,338)"/>
</svg>
