<?xml version="1.0" encoding="utf-8"?>
<!-- Generator: Adobe Illustrator 26.0.1, SVG Export Plug-In . SVG Version: 6.00 Build 0)  -->
<svg version="1.1" id="Слой_1" xmlns="http://www.w3.org/2000/svg" xmlns:xlink="http://www.w3.org/1999/xlink" x="0px" y="0px"
	 viewBox="0 0 17 17" style="enable-background:new 0 0 17 17;" xml:space="preserve">
<style type="text/css">
	.st0{fill:#FFFFFF;}
</style>
<g>
	<path class="st0" d="M16.68,7.66l-0.5-2.2c-0.06-0.28-0.34-0.45-0.62-0.39l-1.6,0.12c-0.31-0.53-0.7-1.01-1.14-1.43l0.47-1.54
		c0.12-0.26,0.02-0.57-0.24-0.69l-2.03-0.98c-0.26-0.12-0.57-0.02-0.69,0.24L9.42,2.12c-0.3-0.04-0.6-0.07-0.92-0.07
		c-0.31,0-0.62,0.02-0.92,0.07L6.68,0.79C6.55,0.54,6.25,0.43,5.99,0.55L3.95,1.53C3.7,1.65,3.59,1.96,3.71,2.22l0.47,1.54
		c-0.45,0.42-0.83,0.9-1.14,1.43l-1.6-0.12C1.16,5.01,0.89,5.18,0.82,5.46l-0.5,2.2C0.26,7.94,0.43,8.21,0.71,8.28l1.5,0.59
		c0.05,0.62,0.19,1.22,0.41,1.78l-1.09,1.18c-0.22,0.18-0.26,0.5-0.08,0.73l1.41,1.77c0.18,0.22,0.5,0.26,0.73,0.08l1.39-0.8
		c0.5,0.34,1.06,0.61,1.65,0.8l0.24,1.59c0,0.29,0.23,0.52,0.52,0.52h2.26c0.29,0,0.52-0.23,0.52-0.52l0.24-1.59
		c0.59-0.19,1.15-0.46,1.65-0.8l1.39,0.8c0.22,0.18,0.55,0.14,0.73-0.08l1.41-1.77c0.18-0.22,0.14-0.55-0.08-0.73l-1.09-1.18
		c0.22-0.56,0.36-1.16,0.41-1.78l1.5-0.59C16.57,8.21,16.74,7.94,16.68,7.66z M12.31,8.37c0,2.1-1.71,3.81-3.81,3.81
		c-2.1,0-3.81-1.71-3.81-3.81c0-2.1,1.71-3.81,3.81-3.81C10.6,4.56,12.31,6.26,12.31,8.37z"/>
</g>
</svg>
