<?xml version="1.0" encoding="utf-8"?>
<!-- Generator: Adobe Illustrator 26.0.1, SVG Export Plug-In . SVG Version: 6.00 Build 0)  -->
<svg version="1.1" id="Слой_1" xmlns="http://www.w3.org/2000/svg" xmlns:xlink="http://www.w3.org/1999/xlink" x="0px" y="0px"
	 viewBox="0 0 778.21 811.91" style="enable-background:new 0 0 778.21 811.91;" xml:space="preserve">
<style type="text/css">
	.st0{fill:url(#SVGID_1_);}
	.st1{fill:#FFFFFF;}
</style>
<g>
	<g>
		
			<linearGradient id="SVGID_1_" gradientUnits="userSpaceOnUse" x1="174.8517" y1="-174.5328" x2="624.1798" y2="-174.5328" gradientTransform="matrix(0 1 -1 0 214.5736 6.4417)">
			<stop  offset="1.385225e-07" style="stop-color:#2A2ABC"/>
			<stop  offset="0.9944" style="stop-color:#00A4FF"/>
		</linearGradient>
		<path class="st0" d="M164.44,604.81v-397.7c0-14.26,11.56-25.81,25.81-25.81h397.7c14.26,0,25.81,11.56,25.81,25.81v397.7
			c0,14.26-11.56,25.81-25.81,25.81h-397.7C176,630.62,164.44,619.06,164.44,604.81z"/>
	</g>
	<g>
		<path class="st1" d="M499.44,323.2h-0.11c-11.81-53.58-57.18-93.24-110.21-93.24c-53.04,0-98.42,39.67-110.23,93.24h-0.11
			c-17.86,0-32.4,14.53-32.4,32.4v193.97c0,17.86,14.53,32.4,32.4,32.4h220.66c17.86,0,32.4-14.53,32.4-32.4V355.6
			C531.84,337.73,517.3,323.2,499.44,323.2z M389.12,257.62c37.97,0,70.77,27.51,81.68,65.58H307.42
			C318.33,285.13,351.13,257.62,389.12,257.62z M504.17,549.56c0,2.61-2.12,4.73-4.73,4.73H278.78c-2.61,0-4.73-2.12-4.73-4.73
			V355.6c0-2.61,2.12-4.73,4.73-4.73h220.66c2.61,0,4.73,2.12,4.73,4.73V549.56z"/>
		<polygon class="st1" points="466.38,423.6 452.68,400.31 401.24,431.69 402.56,371.99 375.65,371.99 376.97,431.69 325.53,400.31 
			311.83,423.59 364.61,452.37 311.83,481.58 325.54,504.39 376.97,473.45 375.65,533.17 402.56,533.17 401.24,473.45 
			452.67,504.39 466.39,481.58 413.17,452.37 		"/>
	</g>
</g>
</svg>
