<?xml version="1.0" encoding="utf-8"?>
<!-- Generator: Adobe Illustrator 26.0.1, SVG Export Plug-In . SVG Version: 6.00 Build 0)  -->
<svg version="1.1" id="Слой_1" xmlns="http://www.w3.org/2000/svg" xmlns:xlink="http://www.w3.org/1999/xlink" x="0px" y="0px"
	 viewBox="0 0 1920 1080" style="enable-background:new 0 0 1920 1080;" xml:space="preserve">
<style type="text/css">
	.st0{fill:#2A2ABC;}
</style>
<g>
	<g>
		<g>
			<path class="st0" d="M499.3,531.1V380h26.6v151.1H499.3z M513.6,443.3h66.9v23.4h-66.9V443.3z M555.1,453.7L619,380h30.8
				l-63,72.3l65.3,78.8h-32.4L555.1,453.7z"/>
		</g>
		<g>
			<path class="st0" d="M718.8,533.9c-13.3,0-25.1-2.5-35.5-7.6c-10.3-5-18.5-12-24.4-21s-8.9-19.5-8.9-31.4
				c0-11.8,2.8-22.2,8.4-31.1c5.6-8.9,13.3-15.9,23.2-21c9.9-5,21.2-7.5,33.9-7.5s23.8,2.9,33.1,8.6s16.5,13.7,21.7,24.1
				c5.1,10.3,7.7,22.5,7.7,36.5H670.7v-19.9H765l-13.1,7.5c-0.4-7.5-2.2-14-5.3-19.3c-3.2-5.4-7.4-9.5-12.7-12.4s-11.6-4.3-18.8-4.3
				c-7.7,0-14.3,1.5-20,4.6s-10.2,7.4-13.4,13s-4.8,12.2-4.8,19.8c0,8.5,1.9,15.8,5.7,22s9.3,10.9,16.3,14.2s15.4,4.9,25.1,4.9
				c8.7,0,17.7-1.4,26.8-4.1s17.2-6.6,24.2-11.6v18.9c-7,5.4-15.5,9.6-25.5,12.7C739.3,532.4,729.2,533.9,718.8,533.9z"/>
		</g>
		<g>
			<path class="st0" d="M833.6,527.5l-52.3-110.4h28.8l49.5,110.4H833.6z M820.6,567.2c-6.7,0-12.8-0.8-18.2-2.5s-10.5-4-15.2-7
				v-19.9c5.1,3.2,10,5.6,14.6,7s9.8,2.2,15.6,2.2c5.5,0,10.4-1.2,14.7-3.7s7.9-6.8,10.7-13l51.4-113.2H922l-59,122.1
				c-3.2,6.7-7,12.1-11.4,16.2c-4.4,4.1-9.1,7.1-14.3,9C832,566.2,826.5,567.2,820.6,567.2z"/>
		</g>
		<g>
			<path class="st0" d="M940.2,531.1V380h26.6v151.1H940.2z M954.5,443.3h66.9v23.4h-66.9V443.3L954.5,443.3z M996,453.7l63.9-73.7
				h30.8l-63.1,72.3l65.3,78.8h-32.4L996,453.7z"/>
		</g>
		<g>
			<path class="st0" d="M1159.8,533.9c-13.3,0-25.1-2.5-35.4-7.6c-10.3-5-18.5-12-24.4-21s-8.9-19.5-8.9-31.4
				c0-11.8,2.8-22.2,8.4-31.1s13.3-15.9,23.2-21c9.9-5,21.2-7.5,33.9-7.5c12.8,0,23.8,2.9,33.1,8.6c9.3,5.7,16.6,13.7,21.7,24.1
				c5.1,10.3,7.7,22.5,7.7,36.5h-107.4v-19.9h94.3l-13.1,7.5c-0.4-7.5-2.2-14-5.3-19.3c-3.2-5.4-7.4-9.5-12.7-12.4
				c-5.3-2.9-11.6-4.3-18.8-4.3c-7.7,0-14.3,1.5-20,4.6s-10.2,7.4-13.4,13c-3.2,5.6-4.8,12.2-4.8,19.8c0,8.5,1.9,15.8,5.7,22
				c3.8,6.2,9.3,10.9,16.3,14.2c7.1,3.3,15.4,4.9,25.1,4.9c8.7,0,17.7-1.4,26.8-4.1s17.2-6.6,24.2-11.6v18.9
				c-7,5.4-15.5,9.6-25.5,12.7C1180.3,532.4,1170.1,533.9,1159.8,533.9z"/>
		</g>
		<g>
			<path class="st0" d="M1302.8,533.9c-13.3,0-25.1-2.5-35.4-7.6c-10.3-5-18.5-12-24.4-21s-8.9-19.5-8.9-31.4
				c0-11.8,2.8-22.2,8.4-31.1s13.3-15.9,23.2-21c9.9-5,21.2-7.5,33.9-7.5c12.8,0,23.8,2.9,33.1,8.6c9.3,5.7,16.6,13.7,21.7,24.1
				c5.1,10.3,7.7,22.5,7.7,36.5h-107.4v-19.9h94.3l-13.1,7.5c-0.4-7.5-2.2-14-5.3-19.3c-3.2-5.4-7.4-9.5-12.7-12.4
				c-5.3-2.9-11.6-4.3-18.8-4.3c-7.7,0-14.3,1.5-20,4.6s-10.2,7.4-13.4,13c-3.2,5.6-4.8,12.2-4.8,19.8c0,8.5,1.9,15.8,5.7,22
				c3.8,6.2,9.3,10.9,16.3,14.2c7.1,3.3,15.4,4.9,25.1,4.9c8.7,0,17.7-1.4,26.8-4.1s17.2-6.6,24.2-11.6v18.9
				c-7,5.4-15.5,9.6-25.5,12.7C1323.3,532.4,1313.1,533.9,1302.8,533.9z"/>
		</g>
		<g>
			<path class="st0" d="M1383.6,417.1h26.2v39.7l-1.2,4v23l1.2,7v73.5h-26.2V417.1z M1399.7,474.1c2.6-12.1,6.8-22.6,12.7-31.5
				c5.9-8.9,13.2-15.9,21.9-20.9c8.7-5,18.3-7.5,28.9-7.5c11.2,0,21,2.5,29.6,7.5s15.3,12,20.1,21c4.8,8.9,7.2,19.4,7.2,31.3
				c0,11.8-2.4,22.2-7.2,31.2c-4.8,9-11.6,16-20.1,21c-8.6,5-18.5,7.6-29.6,7.6c-10.6,0-20.2-2.5-28.8-7.5c-8.6-5-15.9-12-21.9-21
				C1406.5,496.5,1402.2,486,1399.7,474.1z M1493.6,474.1c0-7.7-1.6-14.4-4.7-20.2c-3.2-5.8-7.5-10.4-13-13.7
				c-5.5-3.3-11.8-4.9-18.9-4.9s-13.8,1.6-20,4.9s-11.7,7.9-16.4,13.7c-4.7,5.8-8.5,12.6-11.5,20.2c2.9,7.7,6.8,14.4,11.5,20.2
				c4.7,5.8,10.2,10.4,16.4,13.7c6.2,3.3,12.9,4.9,20,4.9s13.4-1.6,18.9-4.9s9.8-7.9,13-13.7C1492,488.5,1493.6,481.7,1493.6,474.1z
				"/>
		</g>
		<g>
			<path class="st0" d="M1604.2,533.9c-13.3,0-25.1-2.5-35.4-7.6c-10.3-5-18.5-12-24.4-21s-8.9-19.5-8.9-31.4
				c0-11.8,2.8-22.2,8.4-31.1s13.3-15.9,23.2-21s21.2-7.5,33.9-7.5c12.8,0,23.8,2.9,33.1,8.6c9.3,5.7,16.6,13.7,21.7,24.1
				s7.7,22.5,7.7,36.5h-107.4v-19.9h94.3l-13.1,7.5c-0.4-7.5-2.2-14-5.3-19.3c-3.2-5.4-7.4-9.5-12.7-12.4
				c-5.3-2.9-11.6-4.3-18.8-4.3c-7.7,0-14.3,1.5-20,4.6s-10.2,7.4-13.4,13c-3.2,5.6-4.8,12.2-4.8,19.8c0,8.5,1.9,15.8,5.7,22
				c3.8,6.2,9.3,10.9,16.3,14.2c7.1,3.3,15.4,4.9,25.1,4.9c8.7,0,17.7-1.4,26.8-4.1s17.2-6.6,24.2-11.6v18.9
				c-7,5.4-15.5,9.6-25.5,12.7C1624.7,532.4,1614.5,533.9,1604.2,533.9z"/>
		</g>
		<g>
			<path class="st0" d="M1686.4,417.1h26.2v41.5v72.5h-26.2v-77.6V417.1z M1770.4,416.3v23c-3-0.8-6.2-1.4-9.7-1.8s-6.8-0.6-9.9-0.6
				c-7.4,0-14,1.6-19.7,4.8c-5.8,3.2-10.3,8-13.6,14.4c-3.3,6.4-4.9,14.2-4.9,23.5l-6-7.5c0.5-8.1,1.9-15.6,4.1-22.7
				c2.2-7,5.3-13.2,9.3-18.4c4-5.2,8.8-9.3,14.6-12.3c5.8-3,12.5-4.4,20.1-4.4c2.7,0,5.4,0.2,8.3,0.5
				C1765.7,415.1,1768.2,415.6,1770.4,416.3z"/>
		</g>
	</g>
	<g>
		<g>
			<polygon class="st0" points="499.3,662.1 499.3,601.7 519.9,601.7 545.3,655.5 539.8,655.5 565,601.7 585.6,601.7 585.6,662.1 
				572.6,662.1 572.6,606.3 576.2,606.3 549.2,662.1 535.6,662.1 508.6,606.5 512.2,606.4 512.2,662.1 			"/>
		</g>
		<g>
			<path class="st0" d="M633.4,663.6c-7,0-13.3-1.3-18.8-4s-9.8-6.4-12.9-11.2c-3.1-4.8-4.7-10.3-4.7-16.7c0-6.3,1.5-11.8,4.4-16.5
				c3-4.7,7-8.4,12.3-11.1c5.2-2.7,11.2-4,18-4s12.6,1.5,17.6,4.5s8.8,7.3,11.5,12.8s4.1,11.9,4.1,19.3H608v-10.6h50l-6.9,4
				c-0.2-4-1.2-7.4-2.8-10.2c-1.7-2.8-3.9-5-6.7-6.6s-6.1-2.3-10-2.3c-4.1,0-7.6,0.8-10.6,2.5c-3,1.6-5.4,3.9-7.1,6.9
				c-1.7,3-2.6,6.5-2.6,10.5c0,4.5,1,8.4,3,11.6c2,3.3,4.9,5.8,8.7,7.5c3.7,1.8,8.2,2.6,13.3,2.6c4.6,0,9.4-0.7,14.2-2.2
				s9.1-3.5,12.8-6.1v10c-3.7,2.8-8.2,5.1-13.5,6.7C644.2,662.7,638.8,663.6,633.4,663.6z"/>
		</g>
		<g>
			<path class="st0" d="M676.2,601.6H690V662h-13.8V601.6z M684,626.1h49.3v10.7H684V626.1z M727.5,601.6h13.8V662h-13.8V601.6z"/>
		</g>
		<g>
			<path class="st0" d="M789,663.6c-7,0-13.3-1.3-18.8-4s-9.8-6.4-12.9-11.2c-3.1-4.8-4.7-10.3-4.7-16.7c0-6.3,1.5-11.8,4.4-16.5
				c3-4.7,7-8.4,12.3-11.1c5.2-2.7,11.2-4,18-4s12.6,1.5,17.6,4.5s8.8,7.3,11.5,12.8s4.1,11.9,4.1,19.3h-56.9v-10.6h50l-6.9,4
				c-0.2-4-1.2-7.4-2.8-10.2c-1.7-2.8-3.9-5-6.7-6.6s-6.1-2.3-10-2.3c-4.1,0-7.6,0.8-10.6,2.5c-3,1.6-5.4,3.9-7.1,6.9
				c-1.7,3-2.6,6.5-2.6,10.5c0,4.5,1,8.4,3,11.6c2,3.3,4.9,5.8,8.7,7.5c3.7,1.8,8.2,2.6,13.3,2.6c4.6,0,9.4-0.7,14.2-2.2
				s9.1-3.5,12.8-6.1v10c-3.7,2.8-8.2,5.1-13.5,6.7C799.9,662.7,794.5,663.6,789,663.6z"/>
		</g>
		<g>
			<path class="st0" d="M909.6,651.4v26h-12.1v-15.3h-60.4v15.3H825v-26h15.6l3.8,0.2h44.1l3.4-0.2H909.6z M838.5,601.6h59.9V658
				h-13.9v-52.1l6.4,6.4h-45.2l6-4.7c0.4,3.1,0.6,6.1,0.7,9c0.1,2.9,0.2,5.6,0.2,8.1c0,10.4-1.4,18.5-4.2,24.5
				c-2.8,5.9-6.7,8.9-11.8,8.9l-5.7-4.8c5.8-4.3,8.8-14.7,8.8-31.2c0-3.2-0.1-6.5-0.3-10C839.1,608.6,838.8,605.1,838.5,601.6z"/>
		</g>
		<g>
			<path class="st0" d="M911.5,662.1l27.4-31.1l-25.5-29.4h16.3l25,29.6l-26.4,30.9H911.5L911.5,662.1z M999.9,636.8h-57.6v-10.7
				h57.7L999.9,636.8L999.9,636.8z M964.1,662.1v-60.4H978v60.4H964.1z M1013.9,662.1l-26.5-30.9l25-29.6h16.3l-25.5,29.4l27.4,31.1
				H1013.9L1013.9,662.1z"/>
		</g>
		<g>
			<path class="st0" d="M1067.1,663.6c-7.1,0-13.3-1.3-18.8-4s-9.8-6.4-12.9-11.2s-4.7-10.3-4.7-16.7c0-6.3,1.5-11.8,4.4-16.5
				s7.1-8.4,12.3-11.1s11.2-4,18-4s12.6,1.5,17.6,4.5c4.9,3,8.8,7.3,11.5,12.8s4.1,11.9,4.1,19.3h-56.9v-10.6h50l-6.9,4
				c-0.2-4-1.2-7.4-2.8-10.2c-1.7-2.8-3.9-5-6.7-6.6c-2.8-1.5-6.1-2.3-10-2.3c-4.1,0-7.6,0.8-10.6,2.5c-3,1.6-5.4,3.9-7.1,6.9
				s-2.6,6.5-2.6,10.5c0,4.5,1,8.4,3,11.6s4.9,5.8,8.7,7.5s8.2,2.6,13.3,2.6c4.6,0,9.4-0.7,14.2-2.2s9.1-3.5,12.8-6.1v10
				c-3.7,2.8-8.2,5.1-13.5,6.7C1077.9,662.7,1072.5,663.6,1067.1,663.6z"/>
		</g>
		<g>
			<path class="st0" d="M1109.9,601.6h13.9v21l-0.6,2.1v12.2l0.6,3.7v39h-13.9V601.6z M1118.4,631.9c1.3-6.4,3.6-12,6.7-16.7
				s7-8.4,11.6-11s9.7-4,15.3-4c5.9,0,11.1,1.3,15.7,4s8.1,6.4,10.7,11.1s3.8,10.3,3.8,16.6s-1.3,11.8-3.8,16.5
				c-2.6,4.8-6.1,8.5-10.7,11.2s-9.8,4-15.7,4c-5.6,0-10.7-1.3-15.3-4s-8.4-6.3-11.6-11.1C1122,643.7,1119.8,638.2,1118.4,631.9z
				 M1168.2,631.9c0-4.1-0.8-7.6-2.5-10.7c-1.7-3.1-4-5.5-6.9-7.3s-6.3-2.6-10-2.6c-3.8,0-7.3,0.9-10.6,2.6
				c-3.3,1.8-6.2,4.2-8.7,7.3s-4.5,6.7-6.1,10.7c1.6,4.1,3.6,7.6,6.1,10.7c2.5,3.1,5.4,5.5,8.7,7.3c3.3,1.8,6.8,2.6,10.6,2.6
				s7.1-0.9,10-2.6s5.2-4.2,6.9-7.3C1167.3,639.5,1168.2,635.9,1168.2,631.9z"/>
		</g>
		<g>
			<polygon class="st0" points="1286.8,601.6 1286.8,662 1272.9,662 1272.9,606 1279.3,612.3 1229.5,612.3 1235.9,606 1235.9,662 
				1222,662 1222,601.6 			"/>
		</g>
		<g>
			<path class="st0" d="M1325.2,622.8c8.9-0.3,15.9,0.3,21,1.8s7.9,2.7,8.4,3.6c0.5,0.9,0.8,5.9,0.8,14.9c0,1.8-0.7,3.8-2.1,6.2
				c-1.4,2.3-3.4,4.6-6.1,6.8c-2.6,2.2-5.8,4-9.5,5.4s-7.8,2.1-12.4,2.1c-5,0-9.4-0.8-13.4-2.5c-3.9-1.6-7.1-4-9.3-7
				c-2.3-3.1-3.4-6.7-3.4-10.9s1.2-7.8,3.5-10.8s5.4-5.3,9.4-6.9C1316.1,623.9,1320.3,622.9,1325.2,622.8z M1350.2,627.7
				c0-5.1-1.8-9.2-5.4-12.1c-3.6-2.9-9.1-4.4-16.4-4.4c-3.9,0-8,0.5-12.2,1.5s-8.2,2.6-12.1,4.9v-10.8c4.2-2.3,8.5-4.1,13-5.1
				c4.4-1.1,9.2-1.6,14.2-1.6c6.6,0,12.3,1,17.1,3.1c4.9,2.1,8.7,5.1,11.4,9.2c2.7,4.1,4.1,9.1,4.1,15.2v34.5h-13.6L1350.2,627.7z
				 M1333.7,633.1c-7.9,0-13.3,0.9-16.2,2.7c-2.9,1.8-4.4,4.2-4.4,7.1c0,2.9,1.4,5.3,4.3,7.1s6.9,2.7,12,2.7c6.1,0,11-1.7,14.9-5.2
				s5.8-7.4,5.8-11.9C1347.1,634,1341.6,633.1,1333.7,633.1z"/>
		</g>
		<g>
			<path class="st0" d="M1377.9,601.6h13.9v21l-0.6,2.1v12.2l0.6,3.7v39h-13.9V601.6z M1386.4,631.9c1.3-6.4,3.6-12,6.7-16.7
				s7-8.4,11.6-11s9.7-4,15.3-4c5.9,0,11.1,1.3,15.7,4s8.1,6.4,10.7,11.1s3.8,10.3,3.8,16.6s-1.3,11.8-3.8,16.5
				c-2.6,4.8-6.1,8.5-10.7,11.2s-9.8,4-15.7,4c-5.6,0-10.7-1.3-15.3-4s-8.4-6.3-11.6-11.1C1390,643.7,1387.8,638.2,1386.4,631.9z
				 M1436.2,631.9c0-4.1-0.8-7.6-2.5-10.7c-1.7-3.1-4-5.5-6.9-7.3s-6.3-2.6-10-2.6c-3.8,0-7.3,0.9-10.6,2.6
				c-3.3,1.8-6.2,4.2-8.7,7.3s-4.5,6.7-6.1,10.7c1.6,4.1,3.6,7.6,6.1,10.7c2.5,3.1,5.4,5.5,8.7,7.3c3.3,1.8,6.8,2.6,10.6,2.6
				s7.1-0.9,10-2.6s5.2-4.2,6.9-7.3C1435.3,639.5,1436.2,635.9,1436.2,631.9z"/>
		</g>
		<g>
			<path class="st0" d="M1495.2,663.6c-7.3,0-13.8-1.3-19.3-4s-9.8-6.4-12.9-11.2s-4.6-10.3-4.6-16.5c0-6.3,1.6-11.9,4.6-16.6
				c3.1-4.7,7.4-8.4,12.9-11.1s11.9-4,19.3-4c7.3,0,13.8,1.3,19.3,4s9.8,6.4,12.9,11.1s4.6,10.3,4.6,16.6s-1.6,11.8-4.6,16.5
				c-3.1,4.8-7.4,8.5-12.9,11.2C1509,662.2,1502.5,663.6,1495.2,663.6z M1495.2,652.7c4.7,0,8.7-0.8,12.1-2.6s6-4.1,7.8-7.2
				c1.8-3.1,2.8-6.8,2.8-11s-0.9-8-2.8-11s-4.5-5.5-7.8-7.2s-7.4-2.6-12.1-2.6c-4.6,0-8.7,0.8-12.1,2.6c-3.4,1.7-6.1,4.1-7.9,7.2
				c-1.8,3.1-2.8,6.8-2.8,11s0.9,8,2.8,11c1.8,3.1,4.5,5.5,7.9,7.2C1486.6,651.8,1490.6,652.7,1495.2,652.7z"/>
		</g>
		<g>
			<path class="st0" d="M1551.8,601.6h59.5V662h-13.9v-56.2l6.4,6.4h-45.1l6-4.9c0.4,4.4,0.7,8.6,0.9,12.5c0.2,4,0.4,7.5,0.4,10.6
				c0,11.4-1.6,19.7-4.8,24.9c-3.2,5.2-8.4,7.8-15.5,7.8c-1.9,0-3.8-0.2-5.6-0.6c-1.8-0.4-3.5-1.1-5.1-2v-10.4
				c1.3,0.5,2.5,0.9,3.8,1.2c1.2,0.3,2.4,0.4,3.5,0.4c3.9,0,6.7-1.8,8.5-5.5c1.7-3.6,2.6-9.5,2.6-17.7c0-3.6-0.1-7.6-0.4-12.2
				C1552.8,611.9,1552.4,607,1551.8,601.6z"/>
		</g>
		<g>
			<path class="st0" d="M1659,663.6c-7.1,0-13.3-1.3-18.8-4s-9.8-6.4-12.9-11.2s-4.7-10.3-4.7-16.7c0-6.3,1.5-11.8,4.4-16.5
				s7.1-8.4,12.3-11.1s11.2-4,18-4s12.6,1.5,17.6,4.5c4.9,3,8.8,7.3,11.5,12.8s4.1,11.9,4.1,19.3h-56.9v-10.6h50l-6.9,4
				c-0.2-4-1.2-7.4-2.8-10.2c-1.7-2.8-3.9-5-6.7-6.6c-2.8-1.5-6.1-2.3-10-2.3c-4.1,0-7.6,0.8-10.6,2.5c-3,1.6-5.4,3.9-7.1,6.9
				s-2.6,6.5-2.6,10.5c0,4.5,1,8.4,3,11.6s4.9,5.8,8.7,7.5s8.2,2.6,13.3,2.6c4.6,0,9.4-0.7,14.2-2.2s9.1-3.5,12.8-6.1v10
				c-3.7,2.8-8.2,5.1-13.5,6.7C1669.9,662.7,1664.5,663.6,1659,663.6z"/>
		</g>
		<g>
			<path class="st0" d="M1701.8,662.1v-60.4h13.7v53.5l-4.2-1l41.3-52.5h17.9v60.4h-13.7v-54.2l4.3,1.1l-41.8,53.2L1701.8,662.1
				L1701.8,662.1z M1735.9,595.6c-6.4,0-11.6-1.6-15.4-4.8s-6.3-7.8-7.2-13.9h11.2c0.6,3.3,1.8,5.8,3.8,7.5s4.5,2.6,7.6,2.6
				s5.6-0.9,7.6-2.6s3.3-4.2,3.8-7.5h11.1c-0.8,6-3.2,10.7-7.2,13.9C1747.3,593.9,1742.2,595.6,1735.9,595.6z"/>
		</g>
	</g>
	<g>
		<g>
			<path class="st0" d="M410.3,410.8h-0.1c-12.2-55.2-59-96.1-113.6-96.1c-54.7,0-101.4,40.9-113.6,96.1h-0.1
				c-18.4,0-33.4,15-33.4,33.4v200c0,18.4,15,33.4,33.4,33.4h227.5c18.4,0,33.4-15,33.4-33.4v-200
				C443.7,425.8,428.7,410.8,410.3,410.8z M296.6,343.2c39.1,0,73,28.4,84.2,67.6H212.3C223.6,371.5,257.4,343.2,296.6,343.2z
				 M415.2,644.2c0,2.7-2.2,4.9-4.9,4.9H182.8c-2.7,0-4.9-2.2-4.9-4.9v-200c0-2.7,2.2-4.9,4.9-4.9h227.5c2.7,0,4.9,2.2,4.9,4.9
				L415.2,644.2L415.2,644.2z"/>
		</g>
		<g>
			<polygon class="st0" points="376.2,514.3 362.1,490.3 309.1,522.6 310.4,461.1 282.7,461.1 284.1,522.6 231,490.3 216.9,514.3 
				271.3,544 216.9,574.1 231,597.6 284.1,565.7 282.7,627.3 310.4,627.3 309.1,565.7 362.1,597.6 376.2,574.1 321.4,544 			"/>
		</g>
	</g>
</g>
</svg>
